<svg width="509" height="476" viewBox="0 0 509 476" fill="none" xmlns="http://www.w3.org/2000/svg">
<g filter="url(#filter0_d)">
<path d="M17.1949 417.687L16.5832 50.8127C16.5486 30.102 33.3099 13.2848 54.0206 13.2502L454.02 12.5832C474.731 12.5487 491.548 29.31 491.582 50.0206L492.194 416.895C492.229 437.605 475.467 454.423 454.757 454.457L54.7574 455.124C34.0468 455.159 17.2295 438.397 17.1949 417.687Z" fill="white" stroke="#9CC0F5" stroke-width="25"/>
<path d="M154.28 123.2L182.59 67.34H213.56L168.53 150.18V203H140.03V151.13L95 67.34H126.16L154.28 123.2Z" fill="#9CC0F5"/>
<path d="M334.15 208.6C330.85 208.6 328 208.45 325.6 208.15C323.1 207.85 320.95 207.5 319.15 207.1V184.6C320.75 184.9 322.45 185.2 324.25 185.5C325.95 185.9 327.8 186.1 329.8 186.1C335 186.1 338.5 184.5 340.3 181.3C342.2 178.2 343.15 173.45 343.15 167.05V67.9H372.25V164.5C372.25 175.2 370.6 183.8 367.3 190.3C364.1 196.8 359.65 201.45 353.95 204.25C348.25 207.15 341.65 208.6 334.15 208.6Z" fill="#9CC0F5"/>
<rect x="132" y="244" width="241" height="30" rx="15" fill="#9CC0F5"/>
<rect x="4" y="357" width="501" height="25" fill="#9CC0F5"/>
<path d="M299 269.703C299 304.661 278.405 333 253 333C227.595 333 207 304.661 207 269.703C207 234.745 227.595 245.59 253 245.59C278.405 245.59 299 234.745 299 269.703Z" fill="#9CC0F5"/>
<path d="M104.78 398.58C107.88 398.58 110.09 399.04 111.41 399.96C112.73 400.88 113.39 402.2 113.39 403.92C113.39 404.86 113.22 405.66 112.88 406.32C112.54 406.96 112.11 407.47 111.59 407.85C111.09 408.23 110.57 408.49 110.03 408.63V408.78C110.61 408.92 111.19 409.16 111.77 409.5C112.35 409.84 112.83 410.35 113.21 411.03C113.61 411.69 113.81 412.59 113.81 413.73C113.81 415.67 113.08 417.2 111.62 418.32C110.16 419.44 108.17 420 105.65 420H97.31V398.58H104.78ZM104.84 406.8C105.8 406.8 106.47 406.6 106.85 406.2C107.25 405.8 107.45 405.32 107.45 404.76C107.45 403.56 106.54 402.96 104.72 402.96H103.1V406.8H104.84ZM103.1 411.03V415.53H105.14C106.14 415.53 106.84 415.32 107.24 414.9C107.64 414.46 107.84 413.91 107.84 413.25C107.84 412.67 107.64 412.16 107.24 411.72C106.84 411.26 106.1 411.03 105.02 411.03H103.1ZM122.925 420H117.195V397.2H122.925V420ZM142.732 411.66C142.732 414.44 141.992 416.58 140.512 418.08C139.032 419.56 137.002 420.3 134.422 420.3C132.822 420.3 131.402 419.97 130.162 419.31C128.922 418.63 127.942 417.65 127.222 416.37C126.522 415.07 126.172 413.5 126.172 411.66C126.172 408.92 126.912 406.81 128.392 405.33C129.872 403.85 131.912 403.11 134.512 403.11C136.112 403.11 137.522 403.44 138.742 404.1C139.982 404.76 140.952 405.73 141.652 407.01C142.372 408.27 142.732 409.82 142.732 411.66ZM131.992 411.66C131.992 413.08 132.182 414.17 132.562 414.93C132.942 415.67 133.582 416.04 134.482 416.04C135.362 416.04 135.982 415.67 136.342 414.93C136.722 414.17 136.912 413.08 136.912 411.66C136.912 410.24 136.722 409.17 136.342 408.45C135.982 407.73 135.352 407.37 134.452 407.37C133.592 407.37 132.962 407.73 132.562 408.45C132.182 409.17 131.992 410.24 131.992 411.66ZM151.304 403.11C152.464 403.11 153.394 403.34 154.094 403.8C154.814 404.24 155.394 404.79 155.834 405.45H155.954L156.374 403.41H161.324V420.03C161.324 422.37 160.594 424.15 159.134 425.37C157.694 426.59 155.474 427.2 152.474 427.2C151.134 427.2 149.954 427.13 148.934 426.99C147.914 426.85 146.934 426.6 145.994 426.24V421.47C146.994 421.89 147.944 422.2 148.844 422.4C149.744 422.62 150.844 422.73 152.144 422.73C154.444 422.73 155.594 421.91 155.594 420.27V419.97C155.594 419.39 155.654 418.7 155.774 417.9H155.594C155.214 418.56 154.674 419.13 153.974 419.61C153.274 420.07 152.354 420.3 151.214 420.3C149.454 420.3 148.024 419.57 146.924 418.11C145.824 416.65 145.274 414.52 145.274 411.72C145.274 408.92 145.834 406.79 146.954 405.33C148.074 403.85 149.524 403.11 151.304 403.11ZM153.464 407.55C151.884 407.55 151.094 408.97 151.094 411.81C151.094 413.25 151.294 414.29 151.694 414.93C152.094 415.55 152.714 415.86 153.554 415.86C154.494 415.86 155.144 415.57 155.504 414.99C155.864 414.39 156.044 413.5 156.044 412.32V411.63C156.044 410.33 155.864 409.33 155.504 408.63C155.164 407.91 154.484 407.55 153.464 407.55ZM171.714 414.24V409.68H179.994V414.24H171.714ZM203.878 420L202.828 415.98H195.868L194.788 420H188.428L195.418 398.49H203.128L210.208 420H203.878ZM200.698 407.73C200.598 407.35 200.458 406.81 200.278 406.11C200.098 405.39 199.918 404.65 199.738 403.89C199.558 403.13 199.418 402.51 199.318 402.03C199.238 402.51 199.108 403.11 198.928 403.83C198.768 404.55 198.598 405.26 198.418 405.96C198.258 406.66 198.118 407.25 197.998 407.73L197.068 411.24H201.628L200.698 407.73ZM217.905 400.44C217.905 401.66 217.875 402.69 217.815 403.53C217.755 404.37 217.705 405.01 217.665 405.45H217.935C218.475 404.59 219.125 403.99 219.885 403.65C220.645 403.29 221.515 403.11 222.495 403.11C223.595 403.11 224.585 403.32 225.465 403.74C226.345 404.16 227.045 404.82 227.565 405.72C228.105 406.6 228.375 407.76 228.375 409.2V420H222.615V410.94C222.615 408.72 221.955 407.61 220.635 407.61C219.595 407.61 218.875 408.05 218.475 408.93C218.095 409.81 217.905 411.07 217.905 412.71V420H212.175V397.2H217.905V400.44ZM242.653 403.11C244.373 403.11 245.773 403.59 246.853 404.55C247.933 405.51 248.473 407.06 248.473 409.2V420H242.743V410.94C242.743 409.84 242.583 409.01 242.263 408.45C241.943 407.89 241.433 407.61 240.733 407.61C239.653 407.61 238.923 408.05 238.543 408.93C238.183 409.81 238.003 411.08 238.003 412.74V420H232.273V403.41H236.593L237.373 405.6H237.583C238.103 404.82 238.783 404.21 239.623 403.77C240.483 403.33 241.493 403.11 242.653 403.11ZM260.351 406.53L264.041 398.58H270.311L263.261 411.63V420H257.441V411.81L250.391 398.58H256.691L260.351 406.53ZM286.638 411.66C286.638 414.44 285.898 416.58 284.418 418.08C282.938 419.56 280.908 420.3 278.328 420.3C276.728 420.3 275.308 419.97 274.068 419.31C272.828 418.63 271.848 417.65 271.128 416.37C270.428 415.07 270.078 413.5 270.078 411.66C270.078 408.92 270.818 406.81 272.298 405.33C273.778 403.85 275.818 403.11 278.418 403.11C280.018 403.11 281.428 403.44 282.648 404.1C283.888 404.76 284.858 405.73 285.558 407.01C286.278 408.27 286.638 409.82 286.638 411.66ZM275.898 411.66C275.898 413.08 276.088 414.17 276.468 414.93C276.848 415.67 277.488 416.04 278.388 416.04C279.268 416.04 279.888 415.67 280.248 414.93C280.628 414.17 280.818 413.08 280.818 411.66C280.818 410.24 280.628 409.17 280.248 408.45C279.888 407.73 279.258 407.37 278.358 407.37C277.498 407.37 276.868 407.73 276.468 408.45C276.088 409.17 275.898 410.24 275.898 411.66ZM306.04 403.41V420H301.72L301 417.93H300.67C300.15 418.77 299.44 419.38 298.54 419.76C297.64 420.12 296.68 420.3 295.66 420.3C294.58 420.3 293.6 420.09 292.72 419.67C291.84 419.25 291.14 418.59 290.62 417.69C290.12 416.79 289.87 415.63 289.87 414.21V403.41H295.6V412.47C295.6 413.55 295.75 414.37 296.05 414.93C296.37 415.49 296.88 415.77 297.58 415.77C298.66 415.77 299.38 415.33 299.74 414.45C300.12 413.57 300.31 412.31 300.31 410.67V403.41H306.04ZM320.378 403.11C322.098 403.11 323.498 403.59 324.578 404.55C325.658 405.51 326.198 407.06 326.198 409.2V420H320.468V410.94C320.468 409.84 320.308 409.01 319.988 408.45C319.668 407.89 319.158 407.61 318.458 407.61C317.378 407.61 316.648 408.05 316.268 408.93C315.908 409.81 315.728 411.08 315.728 412.74V420H309.998V403.41H314.318L315.098 405.6H315.308C315.828 404.82 316.508 404.21 317.348 403.77C318.208 403.33 319.218 403.11 320.378 403.11ZM335.405 403.11C336.565 403.11 337.495 403.34 338.195 403.8C338.915 404.24 339.495 404.79 339.935 405.45H340.055L340.475 403.41H345.425V420.03C345.425 422.37 344.695 424.15 343.235 425.37C341.795 426.59 339.575 427.2 336.575 427.2C335.235 427.2 334.055 427.13 333.035 426.99C332.015 426.85 331.035 426.6 330.095 426.24V421.47C331.095 421.89 332.045 422.2 332.945 422.4C333.845 422.62 334.945 422.73 336.245 422.73C338.545 422.73 339.695 421.91 339.695 420.27V419.97C339.695 419.39 339.755 418.7 339.875 417.9H339.695C339.315 418.56 338.775 419.13 338.075 419.61C337.375 420.07 336.455 420.3 335.315 420.3C333.555 420.3 332.125 419.57 331.025 418.11C329.925 416.65 329.375 414.52 329.375 411.72C329.375 408.92 329.935 406.79 331.055 405.33C332.175 403.85 333.625 403.11 335.405 403.11ZM337.565 407.55C335.985 407.55 335.195 408.97 335.195 411.81C335.195 413.25 335.395 414.29 335.795 414.93C336.195 415.55 336.815 415.86 337.655 415.86C338.595 415.86 339.245 415.57 339.605 414.99C339.965 414.39 340.145 413.5 340.145 412.32V411.63C340.145 410.33 339.965 409.33 339.605 408.63C339.265 407.91 338.585 407.55 337.565 407.55ZM348.023 426.72C347.363 426.72 346.793 426.69 346.313 426.63C345.813 426.57 345.383 426.5 345.023 426.42V421.92C345.343 421.98 345.683 422.04 346.043 422.1C346.383 422.18 346.753 422.22 347.153 422.22C348.193 422.22 348.893 421.9 349.253 421.26C349.633 420.64 349.823 419.69 349.823 418.41V398.58H355.643V417.9C355.643 420.04 355.313 421.76 354.653 423.06C354.013 424.36 353.123 425.29 351.983 425.85C350.843 426.43 349.523 426.72 348.023 426.72ZM376.059 403.41V420H371.739L371.019 417.93H370.689C370.169 418.77 369.459 419.38 368.559 419.76C367.659 420.12 366.699 420.3 365.679 420.3C364.599 420.3 363.619 420.09 362.739 419.67C361.859 419.25 361.159 418.59 360.639 417.69C360.139 416.79 359.889 415.63 359.889 414.21V403.41H365.619V412.47C365.619 413.55 365.769 414.37 366.069 414.93C366.389 415.49 366.899 415.77 367.599 415.77C368.679 415.77 369.399 415.33 369.759 414.45C370.139 413.57 370.329 412.31 370.329 410.67V403.41H376.059ZM390.397 403.11C392.117 403.11 393.517 403.59 394.597 404.55C395.677 405.51 396.217 407.06 396.217 409.2V420H390.487V410.94C390.487 409.84 390.327 409.01 390.007 408.45C389.687 407.89 389.177 407.61 388.477 407.61C387.397 407.61 386.667 408.05 386.287 408.93C385.927 409.81 385.747 411.08 385.747 412.74V420H380.017V403.41H384.337L385.117 405.6H385.327C385.847 404.82 386.527 404.21 387.367 403.77C388.227 403.33 389.237 403.11 390.397 403.11Z" fill="#9CC0F5"/>
</g>
<defs>
<filter id="filter0_d" x="0" y="0" width="509" height="475.708" filterUnits="userSpaceOnUse" color-interpolation-filters="sRGB">
<feFlood flood-opacity="0" result="BackgroundImageFix"/>
<feColorMatrix in="SourceAlpha" type="matrix" values="0 0 0 0 0 0 0 0 0 0 0 0 0 0 0 0 0 0 127 0" result="hardAlpha"/>
<feOffset dy="4"/>
<feGaussianBlur stdDeviation="2"/>
<feComposite in2="hardAlpha" operator="out"/>
<feColorMatrix type="matrix" values="0 0 0 0 0 0 0 0 0 0 0 0 0 0 0 0 0 0 0.25 0"/>
<feBlend mode="normal" in2="BackgroundImageFix" result="effect1_dropShadow"/>
<feBlend mode="normal" in="SourceGraphic" in2="effect1_dropShadow" result="shape"/>
</filter>
</defs>
</svg>
