<svg width="130" height="130" viewBox="0 0 130 130" fill="none" xmlns="http://www.w3.org/2000/svg">
<rect width="130" height="130" fill="#EBD7BA"/>
<path d="M50.0883 92.1268C50.0883 92.1268 45.7576 94.6556 53.1704 95.5114C62.1507 96.5401 66.7405 96.3926 76.6369 94.5118C76.6369 94.5118 79.2388 96.15 82.8725 97.5688C60.6873 107.116 32.6631 97.0158 50.0883 92.1268Z" fill="#5382A1"/>
<path d="M47.3768 79.668C47.3768 79.668 42.5194 83.2784 49.9377 84.0489C59.5308 85.0426 67.1067 85.1239 80.2159 82.5892C80.2159 82.5892 82.029 84.435 84.8802 85.4444C58.057 93.3203 28.1808 86.0655 47.3768 79.668Z" fill="#5382A1"/>
<path d="M70.2307 58.5338C75.6971 64.8533 68.7944 70.5401 68.7944 70.5401C68.7944 70.5401 82.6746 63.3452 76.3 54.3354C70.3464 45.9333 65.7808 41.7585 90.4973 27.3647C90.4973 27.3647 51.7006 37.0943 70.2307 58.5338Z" fill="#E76F00"/>
<path d="M99.5729 101.342C99.5729 101.342 102.778 103.994 96.0434 106.045C83.2378 109.94 42.7452 111.116 31.4965 106.2C27.4529 104.434 35.0358 101.982 37.4211 101.468C39.9088 100.926 41.3303 101.027 41.3303 101.027C36.8334 97.8463 12.2642 107.273 28.8504 109.973C74.0833 117.339 111.306 106.656 99.5729 101.342Z" fill="#5382A1"/>
<path d="M52.1713 66.7592C52.1713 66.7592 31.5742 71.6716 44.8773 73.4555C50.4943 74.2106 61.6917 74.0398 72.1218 73.1622C80.6458 72.4402 89.2049 70.9051 89.2049 70.9051C89.2049 70.9051 86.1992 72.1976 84.0247 73.6886C63.1087 79.2122 22.7029 76.6426 34.3352 70.9925C44.1727 66.2176 52.1713 66.7592 52.1713 66.7592Z" fill="#5382A1"/>
<path d="M89.1187 87.4975C110.381 76.4033 100.55 65.7419 93.6883 67.1782C92.0065 67.5297 91.2566 67.8343 91.2566 67.8343C91.2566 67.8343 91.881 66.8522 93.0735 66.4271C106.648 61.6349 117.088 80.5608 88.6914 88.0566C88.6914 88.0569 89.0204 87.7616 89.1187 87.4975Z" fill="#5382A1"/>
<path d="M76.3003 4.12238C76.3003 4.12238 88.0755 15.9503 65.1319 34.1382C46.7335 48.728 60.9365 57.0468 65.1243 66.5513C54.3848 56.8217 46.5035 48.2566 51.7909 40.2851C59.5516 28.5836 81.0513 22.9102 76.3003 4.12238Z" fill="#E76F00"/>
<path d="M54.2603 117.56C74.6692 118.872 106.009 116.832 106.752 107.136C106.752 107.136 105.325 110.812 89.8848 113.731C72.4654 117.023 50.9809 116.638 38.2383 114.529C38.2386 114.528 40.8469 116.697 54.2603 117.56Z" fill="#5382A1"/>
</svg>
