<svg width="509" height="476" viewBox="0 0 509 476" fill="none" xmlns="http://www.w3.org/2000/svg">
<g filter="url(#filter0_d)">
<path d="M17.1949 417.687L16.5832 50.8127C16.5486 30.102 33.3099 13.2848 54.0206 13.2502L454.02 12.5832C474.731 12.5487 491.548 29.31 491.582 50.0206L492.194 416.895C492.229 437.605 475.467 454.423 454.757 454.457L54.7574 455.124C34.0468 455.159 17.2295 438.397 17.1949 417.687Z" fill="white" stroke="#C99CF5" stroke-width="25"/>
<circle cx="429.041" cy="80.0418" r="25" transform="rotate(-90.0955 429.041 80.0418)" fill="#C99CF5"/>
<circle cx="253.704" cy="244.704" r="97.5" transform="rotate(-90.0955 253.704 244.704)" fill="white" stroke="#C99CF5" stroke-width="50"/>
<path d="M442.722 138.143C442.768 141.769 442.016 144.486 440.465 146.292C438.915 148.126 436.687 149.061 433.78 149.098C432.474 149.115 431.218 148.944 430.014 148.586C428.836 148.228 427.761 147.628 426.79 146.787C425.847 145.972 425.086 144.875 424.508 143.496C423.957 142.116 423.669 140.413 423.643 138.386L423.616 136.227L414.136 136.347L414.038 128.628L442.596 128.264L442.722 138.143ZM436.48 138.063L436.455 136.063L429.895 136.146L429.914 137.666C429.927 138.68 430.192 139.556 430.708 140.296C431.251 141.036 432.176 141.398 433.482 141.381C434.389 141.37 435.119 141.094 435.672 140.553C436.225 140.013 436.494 139.183 436.48 138.063ZM429.02 180.435C426.06 180.472 423.467 180.025 421.242 179.094C419.044 178.188 417.318 176.717 416.065 174.679C414.813 172.668 414.166 170.023 414.124 166.743C414.083 163.544 414.663 160.909 415.863 158.841C417.064 156.772 418.764 155.23 420.965 154.215C423.166 153.227 425.746 152.714 428.706 152.676C431.665 152.639 434.245 153.099 436.444 154.058C438.67 155.016 440.396 156.514 441.622 158.552C442.848 160.59 443.481 163.209 443.522 166.409C443.563 169.662 442.984 172.309 441.783 174.351C440.609 176.42 438.922 177.935 436.721 178.896C434.546 179.884 431.979 180.397 429.02 180.435ZM428.769 160.796C426.183 160.829 424.162 161.295 422.707 162.194C421.252 163.119 420.537 164.608 420.563 166.661C420.591 168.794 421.343 170.278 422.82 171.113C424.298 171.947 426.33 172.348 428.916 172.315C431.503 172.282 433.537 171.83 435.019 170.957C436.502 170.085 437.229 168.596 437.203 166.489C437.176 164.383 436.41 162.899 434.906 162.038C433.401 161.177 431.356 160.763 428.769 160.796ZM443.444 194.767C443.542 202.526 440.779 206.442 435.153 206.514C433.419 206.536 431.907 206.115 430.616 205.251C429.352 204.414 428.284 203.254 427.412 201.772L415.079 210.25L414.967 201.491L425.289 195.318L425.264 193.359L414.865 193.491L414.767 185.772L443.324 185.408L443.444 194.767ZM437.602 194.721L437.583 193.201L431.064 193.285L431.082 194.725C431.097 195.898 431.363 196.854 431.879 197.595C432.422 198.361 433.36 198.736 434.693 198.719C435.626 198.707 436.343 198.391 436.841 197.771C437.367 197.151 437.621 196.135 437.602 194.721ZM415.272 225.439L415.174 217.72L437.412 217.436L437.323 210.477L443.643 210.396L443.919 232.034L437.599 232.115L437.511 225.155L415.272 225.439ZM415.51 244.07L415.413 236.471L443.971 236.107L444.186 252.985L437.986 253.064L437.868 243.785L432.429 243.854L432.538 252.414L426.338 252.493L426.229 243.934L415.51 244.07ZM430.347 284.567C427.388 284.605 424.795 284.158 422.57 283.226C420.371 282.32 418.646 280.849 417.393 278.812C416.141 276.801 415.493 274.155 415.452 270.876C415.411 267.676 415.991 265.042 417.191 262.973C418.391 260.904 420.092 259.362 422.292 258.347C424.493 257.359 427.074 256.846 430.034 256.809C432.993 256.771 435.573 257.231 437.772 258.19C439.997 259.148 441.723 260.646 442.949 262.684C444.176 264.722 444.809 267.341 444.85 270.541C444.891 273.794 444.312 276.441 443.111 278.484C441.937 280.552 440.25 282.067 438.048 283.028C435.874 284.016 433.307 284.529 430.347 284.567ZM430.097 264.928C427.511 264.961 425.49 265.427 424.034 266.326C422.579 267.251 421.865 268.74 421.891 270.794C421.918 272.927 422.671 274.411 424.148 275.245C425.626 276.08 427.657 276.48 430.244 276.447C432.83 276.414 434.865 275.962 436.347 275.09C437.829 274.217 438.557 272.728 438.53 270.621C438.503 268.515 437.738 267.031 436.233 266.17C434.729 265.309 432.683 264.895 430.097 264.928ZM416.094 289.904L444.652 289.54L444.75 297.259L422.432 297.544L422.573 308.543L416.333 308.622L416.094 289.904ZM416.559 326.342L416.369 311.463L420.769 311.407L422.174 314.95L439.253 314.732L440.527 311.155L444.927 311.099L445.117 325.978L440.717 326.034L439.352 322.491L422.273 322.709L420.959 326.286L416.559 326.342ZM431.275 357.334C428.316 357.372 425.723 356.925 423.498 355.993C421.299 355.088 419.574 353.617 418.321 351.579C417.068 349.568 416.421 346.923 416.38 343.643C416.339 340.443 416.919 337.809 418.119 335.74C419.319 333.672 421.02 332.13 423.22 331.115C425.421 330.127 428.002 329.614 430.961 329.576C433.921 329.538 436.501 329.999 438.7 330.958C440.925 331.916 442.651 333.414 443.877 335.452C445.103 337.49 445.737 340.109 445.778 343.308C445.819 346.561 445.24 349.209 444.039 351.251C442.865 353.32 441.178 354.835 438.976 355.796C436.802 356.784 434.235 357.297 431.275 357.334ZM431.025 337.696C428.438 337.729 426.418 338.195 424.962 339.093C423.507 340.019 422.793 341.508 422.819 343.561C422.846 345.694 423.599 347.178 425.076 348.013C426.553 348.847 428.585 349.248 431.172 349.215C433.758 349.182 435.793 348.729 437.275 347.857C438.757 346.985 439.485 345.495 439.458 343.389C439.431 341.282 438.666 339.799 437.161 338.938C435.657 338.077 433.611 337.663 431.025 337.696Z" fill="#C99CF5"/>
<path d="M101.6 88L100.2 82.64H90.92L89.48 88H81L90.32 59.32H100.6L110.04 88H101.6ZM97.36 71.64C97.2267 71.1333 97.04 70.4133 96.8 69.48C96.56 68.52 96.32 67.5333 96.08 66.52C95.84 65.5067 95.6533 64.68 95.52 64.04C95.4133 64.68 95.24 65.48 95 66.44C94.7867 67.4 94.56 68.3467 94.32 69.28C94.1067 70.2133 93.92 71 93.76 71.64L92.52 76.32H98.6L97.36 71.64ZM120.303 61.92C120.303 63.5467 120.263 64.92 120.183 66.04C120.103 67.16 120.037 68.0133 119.983 68.6H120.343C121.063 67.4533 121.93 66.6533 122.943 66.2C123.957 65.72 125.117 65.48 126.423 65.48C127.89 65.48 129.21 65.76 130.383 66.32C131.557 66.88 132.49 67.76 133.183 68.96C133.903 70.1333 134.263 71.68 134.263 73.6V88H126.583V75.92C126.583 72.96 125.703 71.48 123.943 71.48C122.557 71.48 121.597 72.0667 121.063 73.24C120.557 74.4133 120.303 76.0933 120.303 78.28V88H112.663V57.6H120.303V61.92ZM153.3 65.48C155.594 65.48 157.46 66.12 158.9 67.4C160.34 68.68 161.06 70.7467 161.06 73.6V88H153.42V75.92C153.42 74.4533 153.207 73.3467 152.78 72.6C152.354 71.8533 151.674 71.48 150.74 71.48C149.3 71.48 148.327 72.0667 147.82 73.24C147.34 74.4133 147.1 76.1067 147.1 78.32V88L139.46 88V65.88H145.22L146.26 68.8H146.54C147.234 67.76 148.14 66.9467 149.26 66.36C150.407 65.7733 151.754 65.48 153.3 65.48ZM176.897 70.04L181.817 59.44L190.177 59.44L180.777 76.84V88H173.017V77.08L163.617 59.44H172.017L176.897 70.04ZM211.948 76.88C211.948 80.5867 210.961 83.44 208.988 85.44C207.014 87.4133 204.308 88.4 200.868 88.4C198.734 88.4 196.841 87.96 195.188 87.08C193.534 86.1733 192.228 84.8667 191.268 83.16C190.334 81.4267 189.868 79.3333 189.868 76.88C189.868 73.2267 190.854 70.4133 192.828 68.44C194.801 66.4667 197.521 65.48 200.988 65.48C203.121 65.48 205.001 65.92 206.628 66.8C208.281 67.68 209.574 68.9733 210.508 70.68C211.468 72.36 211.948 74.4267 211.948 76.88ZM197.628 76.88C197.628 78.7733 197.881 80.2267 198.388 81.24C198.894 82.2267 199.748 82.72 200.948 82.72C202.121 82.72 202.948 82.2267 203.428 81.24C203.934 80.2267 204.188 78.7733 204.188 76.88C204.188 74.9867 203.934 73.56 203.428 72.6C202.948 71.64 202.108 71.16 200.908 71.16C199.761 71.16 198.921 71.64 198.388 72.6C197.881 73.56 197.628 74.9867 197.628 76.88ZM237.816 65.88V88H232.056L231.096 85.24H230.656C229.963 86.36 229.016 87.1733 227.816 87.68C226.616 88.16 225.336 88.4 223.976 88.4C222.536 88.4 221.23 88.12 220.056 87.56C218.883 87 217.95 86.12 217.256 84.92C216.59 83.72 216.256 82.1733 216.256 80.28V65.88H223.896V77.96C223.896 79.4 224.096 80.4933 224.496 81.24C224.923 81.9867 225.603 82.36 226.536 82.36C227.976 82.36 228.936 81.7733 229.416 80.6C229.923 79.4267 230.176 77.7467 230.176 75.56V65.88H237.816ZM256.933 65.48C259.226 65.48 261.093 66.12 262.533 67.4C263.973 68.68 264.693 70.7467 264.693 73.6V88H257.053V75.92C257.053 74.4533 256.84 73.3467 256.413 72.6C255.986 71.8533 255.306 71.48 254.373 71.48C252.933 71.48 251.96 72.0667 251.453 73.24C250.973 74.4133 250.733 76.1067 250.733 78.32V88H243.093V65.88H248.853L249.893 68.8H250.173C250.866 67.76 251.773 66.9467 252.893 66.36C254.04 65.7733 255.386 65.48 256.933 65.48ZM276.97 65.48C278.517 65.48 279.757 65.7867 280.69 66.4C281.65 66.9867 282.423 67.72 283.01 68.6H283.17L283.73 65.88H290.33V88.04C290.33 91.16 289.357 93.5333 287.41 95.16C285.49 96.7867 282.53 97.6 278.53 97.6C276.743 97.6 275.17 97.5067 273.81 97.32C272.45 97.1333 271.143 96.8 269.89 96.32V89.96C271.223 90.52 272.49 90.9333 273.69 91.2C274.89 91.4933 276.357 91.64 278.09 91.64C281.157 91.64 282.69 90.5467 282.69 88.36V87.96C282.69 87.1867 282.77 86.2667 282.93 85.2H282.69C282.183 86.08 281.463 86.84 280.53 87.48C279.597 88.0933 278.37 88.4 276.85 88.4C274.503 88.4 272.597 87.4267 271.13 85.48C269.663 83.5333 268.93 80.6933 268.93 76.96C268.93 73.2267 269.677 70.3867 271.17 68.44C272.663 66.4667 274.597 65.48 276.97 65.48ZM279.85 71.4C277.743 71.4 276.69 73.2933 276.69 77.08C276.69 79 276.957 80.3867 277.49 81.24C278.023 82.0667 278.85 82.48 279.97 82.48C281.223 82.48 282.09 82.0933 282.57 81.32C283.05 80.52 283.29 79.3333 283.29 77.76V76.84C283.29 75.1067 283.05 73.7733 282.57 72.84C282.117 71.88 281.21 71.4 279.85 71.4ZM304.184 96.96C303.304 96.96 302.544 96.92 301.904 96.84C301.237 96.76 300.664 96.6667 300.184 96.56V90.56C300.61 90.64 301.064 90.72 301.544 90.8C301.997 90.9067 302.49 90.96 303.024 90.96C304.41 90.96 305.344 90.5333 305.824 89.68C306.33 88.8533 306.584 87.5867 306.584 85.88V59.44H314.344V85.2C314.344 88.0533 313.904 90.3467 313.024 92.08C312.17 93.8133 310.984 95.0533 309.464 95.8C307.944 96.5733 306.184 96.96 304.184 96.96ZM341.566 65.88V88H335.806L334.846 85.24H334.406C333.713 86.36 332.766 87.1733 331.566 87.68C330.366 88.16 329.086 88.4 327.726 88.4C326.286 88.4 324.98 88.12 323.806 87.56C322.633 87 321.7 86.12 321.006 84.92C320.34 83.72 320.006 82.1733 320.006 80.28V65.88H327.646V77.96C327.646 79.4 327.846 80.4933 328.246 81.24C328.673 81.9867 329.353 82.36 330.286 82.36C331.726 82.36 332.686 81.7733 333.166 80.6C333.673 79.4267 333.926 77.7467 333.926 75.56V65.88H341.566ZM360.683 65.48C362.976 65.48 364.843 66.12 366.283 67.4C367.723 68.68 368.443 70.7467 368.443 73.6V88H360.803V75.92C360.803 74.4533 360.59 73.3467 360.163 72.6C359.736 71.8533 359.056 71.48 358.123 71.48C356.683 71.48 355.71 72.0667 355.203 73.24C354.723 74.4133 354.483 76.1067 354.483 78.32V88H346.843V65.88H352.603L353.643 68.8H353.923C354.616 67.76 355.523 66.9467 356.643 66.36C357.79 65.7733 359.136 65.48 360.683 65.48Z" fill="#C99CF5"/>
</g>
<defs>
<filter id="filter0_d" x="0" y="0" width="508.777" height="475.708" filterUnits="userSpaceOnUse" color-interpolation-filters="sRGB">
<feFlood flood-opacity="0" result="BackgroundImageFix"/>
<feColorMatrix in="SourceAlpha" type="matrix" values="0 0 0 0 0 0 0 0 0 0 0 0 0 0 0 0 0 0 127 0" result="hardAlpha"/>
<feOffset dy="4"/>
<feGaussianBlur stdDeviation="2"/>
<feComposite in2="hardAlpha" operator="out"/>
<feColorMatrix type="matrix" values="0 0 0 0 0 0 0 0 0 0 0 0 0 0 0 0 0 0 0.25 0"/>
<feBlend mode="normal" in2="BackgroundImageFix" result="effect1_dropShadow"/>
<feBlend mode="normal" in="SourceGraphic" in2="effect1_dropShadow" result="shape"/>
</filter>
</defs>
</svg>
