<svg width="1920" height="1080" viewBox="0 0 1920 1080" fill="none" xmlns="http://www.w3.org/2000/svg">
<g clip-path="url(#clip0_20:901)">
<rect width="1920" height="1080" fill="white"/>
<path d="M298 73H1598V1083H298V73Z" fill="white"/>
<rect x="1579" y="825" width="5" height="209" fill="#C99CF5"/>
<rect x="754" y="1034" width="5" height="828" transform="rotate(-90 754 1034)" fill="#C99CF5"/>
<path d="M312.1 1015.74H316.08V1014.38H306.38V1015.74H310.48V1018.02C310.48 1021.06 308.32 1024.46 305.76 1025.74L306.72 1027.04C308.74 1026 310.48 1023.72 311.3 1021.1C312.12 1023.5 313.8 1025.6 315.8 1026.6L316.74 1025.28C314.14 1024.06 312.1 1020.88 312.1 1018.02V1015.74ZM322.82 1019.78H319.86V1012.56H318.22V1030.48H319.86V1021.16H322.82V1019.78ZM331.918 1024.82H326.798V1020.1H331.918V1024.82ZM331.918 1018.8H326.798V1014.06H325.178V1026.16H333.518V1014.06H331.918V1018.8ZM341.218 1019.6H338.258V1012.56H336.618V1030.46H338.258V1020.98H341.218V1019.6ZM345.057 1017.92C345.057 1016.24 346.377 1015.08 348.217 1015.08C350.037 1015.08 351.357 1016.24 351.357 1017.92C351.357 1019.62 350.037 1020.74 348.217 1020.74C346.377 1020.74 345.057 1019.62 345.057 1017.92ZM349.037 1022.08C351.337 1021.78 352.957 1020.16 352.957 1017.92C352.957 1015.4 350.957 1013.7 348.217 1013.7C345.437 1013.7 343.457 1015.4 343.457 1017.92C343.457 1020.16 345.057 1021.8 347.397 1022.08V1025.18C345.717 1025.22 344.077 1025.24 342.657 1025.24L342.877 1026.62C346.037 1026.62 350.217 1026.56 354.017 1025.92L353.877 1024.72C352.337 1024.94 350.677 1025.04 349.037 1025.12V1022.08ZM359.497 1019.94H356.657V1012.52H355.017V1030.48H356.657V1021.32H359.497V1019.94ZM371.768 1015.74H375.748V1014.38H366.048V1015.74H370.148V1018.02C370.148 1021.06 367.988 1024.46 365.428 1025.74L366.388 1027.04C368.408 1026 370.148 1023.72 370.968 1021.1C371.788 1023.5 373.468 1025.6 375.468 1026.6L376.408 1025.28C373.808 1024.06 371.768 1020.88 371.768 1018.02V1015.74ZM382.488 1019.78H379.528V1012.56H377.888V1030.48H379.528V1021.16H382.488V1019.78ZM391.586 1024.82H386.466V1020.1H391.586V1024.82ZM391.586 1018.8H386.466V1014.06H384.846V1026.16H393.186V1014.06H391.586V1018.8ZM400.886 1019.6H397.926V1012.56H396.286V1030.46H397.926V1020.98H400.886V1019.6ZM417.985 1021.56C414.845 1020.96 411.445 1018.24 411.445 1015.18V1013.8H409.725V1015.18C409.725 1018.24 406.345 1020.94 403.205 1021.56L403.945 1022.92C406.645 1022.28 409.445 1020.36 410.585 1017.74C411.725 1020.38 414.525 1022.3 417.245 1022.92L417.985 1021.56ZM402.525 1026.72V1028.08H418.785V1026.72H402.525ZM422.403 1019.82L422.643 1021.18L433.463 1020.58C433.363 1021.96 433.163 1023.44 432.763 1025.16L434.383 1025.32C435.163 1021.64 435.163 1019.22 435.163 1016.56V1014.36H422.863V1015.7H433.563V1016.56C433.563 1017.48 433.563 1018.4 433.523 1019.34L422.403 1019.82ZM420.943 1026.64V1027.98H437.163V1026.64H420.943ZM450.222 1020.12C447.382 1020.58 445.042 1020.68 441.862 1020.68V1018.26H448.362V1013.42H440.202V1014.74H446.742V1017H440.262V1022.02H441.702C445.022 1022.02 447.462 1021.92 450.402 1021.44L450.222 1020.12ZM452.422 1028.9H444.042V1026.7H452.422V1028.9ZM452.422 1025.42H444.042V1023.3H442.422V1030.24H454.042V1023.3H452.422V1025.42ZM452.402 1012.56V1022.4H454.042V1012.56H452.402ZM472.12 1022.22H461.46V1019.38H471.54V1018.08H461.46V1015.42H471.94V1014.1H459.8V1023.54H472.12V1022.22ZM457.7 1026.82V1028.16H473.98V1026.82H457.7ZM488.679 1015.68H478.199V1019.52H490.619V1018.34H479.819V1016.8H490.299V1013.06H478.159V1014.22H488.679V1015.68ZM479.719 1027.4H490.359V1023.58H478.059V1024.76H488.739V1026.26H478.099V1030.24H490.919V1029.06H479.719V1027.4ZM476.119 1020.88V1022.12H492.379V1020.88H476.119ZM500.05 1014.48V1015.8H506.79C506.45 1020.06 504.05 1023.5 499.23 1025.8L500.11 1027.14C506.07 1024.22 508.45 1019.66 508.45 1014.48H500.05ZM512.07 1012.54V1030.48H513.71V1012.54H512.07ZM524.828 1021.4H519.748V1018.12H524.828V1021.4ZM526.428 1013.84H524.828V1016.84H519.748V1013.84H518.128V1022.72H526.428V1013.84ZM521.788 1024.46H520.148V1030.08H532.108V1028.74H521.788V1024.46ZM531.308 1017.98V1012.56H529.668V1025.72H531.308V1019.36H533.948V1017.98H531.308ZM543.887 1013.66C540.167 1013.66 537.367 1015.64 537.367 1018.62C537.367 1021.62 540.167 1023.58 543.887 1023.58C547.607 1023.58 550.407 1021.62 550.407 1018.62C550.407 1015.64 547.607 1013.66 543.887 1013.66ZM543.887 1015C546.727 1015 548.847 1016.46 548.847 1018.62C548.847 1020.8 546.727 1022.24 543.887 1022.24C541.067 1022.24 538.927 1020.8 538.927 1018.62C538.927 1016.46 541.067 1015 543.887 1015ZM535.767 1026.74V1028.1H552.067V1026.74H535.767ZM563.125 1026.92V1023.54H568.865V1022.22H557.825V1019.32H568.445V1013.86H556.165V1015.2H566.845V1018H556.205V1023.54H561.465V1026.92H554.165V1028.26H570.465V1026.92H563.125ZM591.416 1018.46H580.736V1014.78H591.276V1013.44H579.096V1019.8H591.416V1018.46ZM580.756 1025H579.116V1030.08H591.556V1028.74H580.756V1025ZM577.056 1021.7V1023.04H584.556V1026.58H586.196V1023.04H593.276V1021.7H577.056ZM600.607 1014.86V1016.2H605.987C605.747 1019.92 604.047 1023.16 599.927 1025.46L600.887 1026.64C605.987 1023.76 607.607 1019.48 607.607 1014.86H600.607ZM613.567 1012.54V1019.76H611.127V1013.02H609.587V1029.58H611.127V1021.1H613.567V1030.48H615.147V1012.54H613.567ZM625.766 1019.8H620.686V1017.12H625.766V1019.8ZM627.366 1013.28H625.766V1015.86H620.686V1013.28H619.066V1021.12H627.366V1013.28ZM622.506 1027.02H632.246V1022.66H620.846V1023.96H630.626V1025.8H620.906V1030.28H632.906V1028.98H622.506V1027.02ZM632.246 1016.4V1012.56H630.606V1021.82H632.246V1017.76H634.906V1016.4H632.246ZM642.764 1015.74H646.744V1014.38H637.044V1015.74H641.144V1018.02C641.144 1021.06 638.984 1024.46 636.424 1025.74L637.384 1027.04C639.404 1026 641.144 1023.72 641.964 1021.1C642.784 1023.5 644.464 1025.6 646.464 1026.6L647.404 1025.28C644.804 1024.06 642.764 1020.88 642.764 1018.02V1015.74ZM653.484 1019.78H650.524V1012.56H648.884V1030.48H650.524V1021.16H653.484V1019.78ZM668.203 1012.56V1022.18H669.843V1012.56H668.203ZM658.283 1023.06V1030.24H669.843V1023.06H668.223V1025.26H659.903V1023.06H658.283ZM659.903 1026.54H668.223V1028.92H659.903V1026.54ZM660.203 1013.4C657.503 1013.4 655.543 1015.08 655.543 1017.52C655.543 1020 657.503 1021.66 660.203 1021.66C662.923 1021.66 664.903 1020 664.903 1017.52C664.903 1015.08 662.923 1013.4 660.203 1013.4ZM660.203 1014.76C662.023 1014.76 663.303 1015.9 663.303 1017.52C663.303 1019.16 662.023 1020.3 660.203 1020.3C658.423 1020.3 657.143 1019.16 657.143 1017.52C657.143 1015.9 658.423 1014.76 660.203 1014.76ZM676.281 1014.28H674.641V1025.84H676.121C678.981 1025.84 681.801 1025.64 684.921 1025L684.741 1023.6C681.761 1024.2 678.981 1024.44 676.281 1024.44V1014.28ZM686.581 1012.54V1030.46H688.221V1012.54H686.581ZM694.319 1015.62H701.019V1014.26H692.679V1026.04H694.099C697.479 1026.04 699.839 1025.92 702.579 1025.4L702.399 1024.04C699.799 1024.5 697.499 1024.64 694.319 1024.64V1015.62ZM708.679 1019.62H705.719V1012.54H704.079V1030.52H705.719V1020.98H708.679V1019.62ZM712.038 1029.26C712.758 1029.26 713.358 1028.7 713.358 1027.88C713.358 1027.04 712.758 1026.46 712.038 1026.46C711.318 1026.46 710.718 1027.04 710.718 1027.88C710.718 1028.7 711.318 1029.26 712.038 1029.26Z" fill="#C99CF5"/>
<path d="M368.6 393.2C387 393.2 400.4 397.2 408.8 405.2C417.333 413.067 421.6 423.933 421.6 437.8C421.6 446.067 419.867 453.867 416.4 461.2C412.933 468.4 407.133 474.2 399 478.6C391 483 380.067 485.2 366.2 485.2H353.2V536H323V393.2H368.6ZM367 418H353.2V460.4H363.2C371.733 460.4 378.467 458.733 383.4 455.4C388.467 451.933 391 446.4 391 438.8C391 424.933 383 418 367 418ZM545.386 481.2C545.386 499.333 540.586 513.333 530.986 523.2C521.519 533.067 508.586 538 492.186 538C482.053 538 472.986 535.8 464.986 531.4C457.119 527 450.919 520.6 446.386 512.2C441.853 503.667 439.586 493.333 439.586 481.2C439.586 463.067 444.319 449.133 453.786 439.4C463.253 429.667 476.253 424.8 492.786 424.8C503.053 424.8 512.119 427 519.986 431.4C527.853 435.8 534.053 442.2 538.586 450.6C543.119 458.867 545.386 469.067 545.386 481.2ZM469.986 481.2C469.986 492 471.719 500.2 475.186 505.8C478.786 511.267 484.586 514 492.586 514C500.453 514 506.119 511.267 509.586 505.8C513.186 500.2 514.986 492 514.986 481.2C514.986 470.4 513.186 462.333 509.586 457C506.119 451.533 500.386 448.8 492.386 448.8C484.519 448.8 478.786 451.533 475.186 457C471.719 462.333 469.986 470.4 469.986 481.2ZM631.014 424.8C632.481 424.8 634.214 424.867 636.214 425C638.214 425.133 639.814 425.333 641.014 425.6L638.814 453.6C637.881 453.333 636.481 453.133 634.614 453C632.881 452.733 631.347 452.6 630.014 452.6C624.947 452.6 620.081 453.533 615.414 455.4C610.747 457.133 606.947 460 604.014 464C601.214 468 599.814 473.467 599.814 480.4V536H570.014V426.8H592.614L597.014 445.2H598.414C601.614 439.6 606.014 434.8 611.614 430.8C617.214 426.8 623.681 424.8 631.014 424.8ZM706.834 514.2C710.168 514.2 713.368 513.867 716.434 513.2C719.501 512.533 722.568 511.733 725.634 510.8V533C722.434 534.333 718.434 535.467 713.634 536.4C708.968 537.467 703.834 538 698.234 538C691.701 538 685.834 536.933 680.634 534.8C675.568 532.667 671.501 529 668.434 523.8C665.501 518.467 664.034 511.133 664.034 501.8V449.2H649.834V436.6L666.234 426.6L674.834 403.6H693.834V426.8H724.434V449.2H693.834V501.8C693.834 505.933 695.034 509.067 697.434 511.2C699.834 513.2 702.968 514.2 706.834 514.2Z" fill="#2C2828"/>
<path d="M1468 733.232C1468.05 762.517 1462.14 791.486 1450.66 818.264C1450.18 819.386 1449.7 820.503 1449.19 821.614C1449.12 821.787 1449.04 821.96 1448.96 822.133C1448.77 822.558 1448.58 822.987 1448.38 823.412C1448.24 823.721 1448.1 824.025 1447.95 824.335C1447.6 825.09 1447.24 825.841 1446.88 826.589C1446.49 827.412 1446.09 828.234 1445.68 829.053C1445.27 829.871 1444.86 830.687 1444.45 831.502C1444.08 832.209 1443.72 832.915 1443.35 833.62C1442.87 834.527 1442.38 835.434 1441.89 836.341C1441.46 837.117 1441.04 837.887 1440.61 838.653C1440.14 839.471 1439.68 840.288 1439.21 841.106L1439.16 841.185C1439.06 841.363 1438.96 841.541 1438.85 841.72C1438.75 841.882 1438.66 842.039 1438.57 842.202C1438.47 842.365 1438.38 842.522 1438.28 842.679V842.684C1437.97 843.208 1437.66 843.722 1437.35 844.241L1437.35 844.247C1436.65 845.4 1435.94 846.548 1435.23 847.686C1433.9 849.804 1432.53 851.891 1431.13 853.946C1431.13 853.951 1431.13 853.951 1431.12 853.956C1430.28 855.193 1429.43 856.42 1428.56 857.636C1428.01 858.412 1427.45 859.185 1426.89 859.954C1426.33 860.724 1425.76 861.488 1425.18 862.245C1425.06 862.418 1424.92 862.591 1424.79 862.764C1424.06 863.729 1423.32 864.693 1422.57 865.642C1422.41 865.852 1422.25 866.056 1422.09 866.261C1421.84 866.57 1421.6 866.879 1421.35 867.183C1421.27 867.288 1421.19 867.388 1421.1 867.493C1420.69 868.007 1420.27 868.52 1419.85 869.034V869.039C1419.43 869.543 1419.02 870.046 1418.6 870.549C1418.51 870.659 1418.41 870.769 1418.32 870.88C1418.18 871.047 1418.04 871.21 1417.9 871.378C1417.55 871.802 1417.19 872.222 1416.82 872.641C1416.82 872.646 1416.82 872.651 1416.81 872.657L1416.8 872.672V872.678C1405.89 885.393 1393.53 896.698 1379.99 906.346C1379.94 906.383 1379.89 906.416 1379.85 906.446C1379.68 906.572 1379.51 906.687 1379.34 906.808C1378.13 907.668 1376.91 908.517 1375.67 909.345C1375.07 909.754 1374.47 910.158 1373.86 910.556V910.561C1373.85 910.561 1373.85 910.561 1373.85 910.567H1373.84L1373.83 910.577L1373.8 910.593C1373.78 910.603 1373.77 910.609 1373.76 910.619C1373.29 910.928 1372.83 911.233 1372.35 911.537C1372.21 911.636 1372.07 911.725 1371.93 911.815C1371.68 911.977 1371.43 912.139 1371.17 912.302C1370.92 912.459 1370.67 912.622 1370.42 912.779C1370.1 912.978 1369.78 913.183 1369.46 913.377C1368.76 913.812 1368.07 914.242 1367.37 914.667C1367.11 914.824 1366.85 914.976 1366.6 915.133C1366.34 915.285 1366.08 915.437 1365.82 915.589C1365.82 915.595 1365.82 915.599 1365.81 915.603C1365.81 915.607 1365.8 915.609 1365.79 915.61L1365.78 915.615L1365.77 915.626H1365.77C1365.06 916.045 1364.35 916.465 1363.64 916.874L1363.63 916.879C1363.06 917.209 1362.48 917.534 1361.91 917.859C1360.54 918.63 1359.16 919.387 1357.77 920.129C1356.81 920.648 1355.84 921.152 1354.86 921.65C1354.27 921.954 1353.68 922.253 1353.09 922.552C1352.59 922.798 1352.1 923.044 1351.6 923.285C1351.47 923.354 1351.34 923.422 1351.2 923.485C1350.97 923.595 1350.75 923.705 1350.52 923.81C1350.34 923.899 1350.15 923.988 1349.96 924.077C1349.52 924.297 1349.07 924.507 1348.62 924.717C1348.12 924.953 1347.62 925.183 1347.12 925.414C1345.23 926.284 1343.32 927.123 1341.41 927.931C1334.57 930.822 1327.59 933.318 1320.49 935.407C1320.16 935.506 1319.82 935.606 1319.49 935.7C1316.45 936.581 1313.38 937.387 1310.3 938.117C1304.92 939.396 1299.48 940.447 1294 941.268C1293.99 941.268 1293.97 941.273 1293.96 941.273C1293.31 941.373 1292.65 941.467 1292 941.562C1291.94 941.572 1291.88 941.582 1291.82 941.588C1291.81 941.593 1291.81 941.593 1291.8 941.588H1291.79C1291.07 941.687 1290.34 941.787 1289.61 941.881C1289.56 941.892 1289.51 941.897 1289.46 941.902C1288.78 941.986 1288.09 942.07 1287.41 942.149C1286.67 942.233 1285.94 942.311 1285.2 942.39H1285.19C1284.06 942.505 1282.94 942.615 1281.81 942.71C1281.79 942.71 1281.77 942.715 1281.75 942.715C1281.3 942.757 1280.86 942.788 1280.41 942.825H1280.4C1275.15 943.255 1269.85 943.468 1264.5 943.465C1258.69 943.465 1252.94 943.215 1247.25 942.715C1247.23 942.715 1247.21 942.71 1247.18 942.71C1245.97 942.605 1244.76 942.49 1243.55 942.364C1243.23 942.332 1242.92 942.296 1242.6 942.264C1242.54 942.259 1242.48 942.254 1242.41 942.243C1242.32 942.233 1242.22 942.222 1242.12 942.212C1242.07 942.207 1242.01 942.201 1241.96 942.191C1241.54 942.144 1241.12 942.096 1240.69 942.044C1240.22 941.986 1239.75 941.929 1239.27 941.866C1238.8 941.808 1238.32 941.745 1237.85 941.677C1237.75 941.666 1237.64 941.656 1237.54 941.635C1237.2 941.593 1236.85 941.546 1236.51 941.493C1236.35 941.473 1236.18 941.446 1236.02 941.42C1235.69 941.373 1235.37 941.326 1235.04 941.273C1235.03 941.273 1235.01 941.268 1235 941.268C1224.64 939.722 1214.41 937.34 1204.4 934.143H1204.4C1203.86 933.97 1203.31 933.792 1202.77 933.614C1202.61 933.567 1202.45 933.514 1202.28 933.457C1200.87 932.99 1199.47 932.508 1198.08 932.01C1196.15 931.328 1194.24 930.615 1192.35 929.87C1191.83 929.666 1191.32 929.461 1190.8 929.257C1189.77 928.838 1188.74 928.418 1187.72 927.988C1185.98 927.254 1184.25 926.498 1182.54 925.718H1182.53V925.713C1181.18 925.094 1179.83 924.465 1178.49 923.81C1178.24 923.695 1178 923.579 1177.76 923.459C1177.71 923.444 1177.67 923.423 1177.62 923.396C1177.62 923.396 1177.62 923.391 1177.61 923.391C1177.26 923.223 1176.91 923.05 1176.56 922.877L1176.55 922.871C1174.76 921.985 1172.99 921.071 1171.23 920.129C1169.04 918.966 1166.88 917.76 1164.73 916.512C1162.96 915.479 1161.2 914.418 1159.46 913.33C1157.39 912.04 1155.35 910.712 1153.33 909.345C1152.7 908.921 1152.07 908.491 1151.44 908.056C1150.87 907.662 1150.31 907.269 1149.74 906.871C1147.75 905.466 1145.79 904.024 1143.85 902.545C1141.85 901.02 1139.87 899.456 1137.92 897.853C1135.39 895.767 1132.9 893.621 1130.46 891.415C1125.92 887.315 1121.57 883.009 1117.4 878.497C1117.26 878.356 1117.13 878.214 1117 878.067C1116.58 877.616 1116.17 877.166 1115.76 876.71C1115.16 876.049 1114.57 875.378 1113.98 874.707C1113.01 873.611 1112.05 872.503 1111.11 871.383H1111.1V871.378C1110.53 870.701 1109.97 870.03 1109.4 869.349V869.343C1109.32 869.249 1109.25 869.155 1109.17 869.06C1108.81 868.625 1108.46 868.195 1108.11 867.755V867.75C1107.63 867.168 1107.17 866.586 1106.71 865.999C1106.61 865.873 1106.51 865.752 1106.41 865.626H1106.41V865.621C1106.03 865.149 1105.66 864.672 1105.3 864.195C1105.11 863.959 1104.93 863.718 1104.75 863.477H1104.74V863.472C1103.63 862.03 1102.55 860.574 1101.49 859.104V859.099C1101.19 858.695 1100.9 858.292 1100.62 857.883H1100.61C1099.25 855.985 1097.93 854.065 1096.64 852.121V852.116C1096.15 851.387 1095.67 850.653 1095.19 849.914C1094.72 849.175 1094.25 848.434 1093.78 847.691H1093.77C1093.29 846.926 1092.81 846.157 1092.34 845.384C1092.32 845.342 1092.29 845.306 1092.27 845.269C1091.8 844.509 1091.34 843.743 1090.89 842.973C1090.53 842.359 1090.17 841.751 1089.82 841.138C1089.57 840.724 1089.33 840.315 1089.1 839.895C1089.01 839.754 1088.94 839.612 1088.86 839.476C1088.32 838.527 1087.8 837.578 1087.27 836.624C1086.65 835.502 1086.04 834.369 1085.45 833.237C1085.21 832.77 1084.96 832.299 1084.72 831.827C1084.64 831.675 1084.56 831.523 1084.49 831.365C1084.2 830.81 1083.92 830.254 1083.64 829.693C1083.36 829.137 1083.08 828.576 1082.81 828.015C1082.53 827.454 1082.26 826.893 1081.99 826.327C1081.79 825.902 1081.58 825.473 1081.39 825.048C1081.37 825.012 1081.35 824.975 1081.33 824.938C1081.24 824.738 1081.14 824.545 1081.06 824.345C1081.04 824.315 1081.02 824.281 1081.01 824.246C1080.8 823.805 1080.6 823.37 1080.4 822.93C1080.14 822.364 1079.88 821.792 1079.63 821.221C1079.45 820.822 1079.27 820.419 1079.1 820.015C1078.84 819.449 1078.59 818.877 1078.35 818.3C1078.09 817.708 1077.84 817.11 1077.59 816.513C1077.53 816.361 1077.47 816.214 1077.41 816.062C1077.29 815.789 1077.18 815.517 1077.07 815.244C1076.77 814.52 1076.47 813.787 1076.18 813.058C1075.85 812.235 1075.53 811.41 1075.22 810.583C1074.92 809.812 1074.63 809.04 1074.35 808.266L1074.24 807.983V807.978C1069.83 796.005 1066.49 783.64 1064.27 771.038V771.032C1063.01 763.837 1062.11 756.578 1061.57 749.286C1061.54 748.887 1061.52 748.489 1061.49 748.09C1061.16 743.157 1060.99 738.204 1061 733.232C1061 731.025 1061.03 728.829 1061.1 726.642C1062.42 680.936 1078.19 636.933 1106 601.363C1107.23 599.795 1108.47 598.247 1109.74 596.718C1111.13 595.04 1112.54 593.385 1113.98 591.753C1114.98 590.62 1115.98 589.502 1117 588.397C1117.02 588.375 1117.04 588.354 1117.06 588.335C1117.17 588.214 1117.28 588.093 1117.4 587.973C1123.61 581.253 1130.25 574.967 1137.26 569.157C1138.07 568.486 1138.87 567.83 1139.68 567.186C1140.4 566.604 1141.12 566.027 1141.85 565.466C1142.69 564.805 1143.54 564.153 1144.39 563.51C1148.83 560.15 1153.4 556.976 1158.11 553.99C1160.07 552.742 1162.06 551.529 1164.06 550.351C1164.8 549.916 1165.54 549.491 1166.28 549.067C1167.28 548.495 1168.29 547.929 1169.3 547.379C1199.46 530.919 1233.14 522.543 1267.25 523.019C1301.35 523.496 1334.8 532.809 1364.52 550.105C1364.66 550.183 1364.8 550.267 1364.94 550.351C1365.81 550.865 1366.68 551.379 1367.54 551.908C1368.67 552.59 1369.79 553.284 1370.9 553.99C1376.5 557.55 1381.92 561.375 1387.16 565.466C1387.97 566.1 1388.78 566.74 1389.58 567.39C1390.31 567.972 1391.03 568.564 1391.75 569.157C1392.14 569.482 1392.53 569.812 1392.92 570.142C1401.49 577.35 1409.48 585.265 1416.81 593.808L1416.82 593.818C1416.93 593.95 1417.04 594.075 1417.15 594.206C1417.5 594.615 1417.85 595.03 1418.2 595.439C1418.24 595.491 1418.29 595.549 1418.33 595.601C1418.84 596.204 1419.34 596.812 1419.85 597.426C1425.95 604.866 1431.54 612.735 1436.59 620.976C1438.46 624.027 1440.26 627.134 1441.98 630.297C1459.09 661.719 1468.06 697.177 1468 733.232Z" fill="#8CAAE4"/>
<path d="M1298.4 630.982C1298.54 630.954 1298.69 630.932 1298.84 630.906C1298.22 630.505 1297.63 630.047 1297.08 629.537L1298.4 630.982Z" fill="white"/>
<path d="M1302.87 573.523C1279.77 579.8 1254.17 583.619 1228.15 584.664C1224.33 584.879 1220.51 584.852 1216.7 584.584C1208.32 583.856 1201.15 581.137 1193.16 579.651C1189.32 578.939 1185.04 578.418 1181.18 577.648C1182.07 576.503 1182.98 575.372 1183.9 574.255C1192.24 574.982 1200.71 577.364 1209.15 578.471C1223.49 580.356 1239.56 578.253 1250.44 573.067C1255.71 570.551 1259.75 567.41 1265.01 564.883C1265.72 564.503 1266.5 564.258 1267.3 564.159C1268.96 564.002 1270.42 564.695 1271.61 565.315C1280.43 569.915 1293.24 573.653 1305.12 571.597C1306.01 572.313 1304.33 573.129 1302.87 573.523Z" fill="white"/>
<path d="M1395.79 643.405C1389 643.966 1382.17 644.383 1375.3 644.658C1370.08 644.949 1364.85 644.912 1359.63 644.547C1348.16 643.546 1338.35 639.829 1327.41 637.795C1317.39 635.934 1305.21 635.037 1298.84 630.906C1315.29 627.965 1332.33 633.952 1349.29 636.18C1363.01 637.923 1376.92 637.213 1390.4 634.083C1392.28 637.134 1394.08 640.241 1395.79 643.405Z" fill="white"/>
<path d="M1254.25 769.575V764.553C1254.25 762.634 1253.54 760.788 1252.26 759.393C1250.99 757.998 1249.24 757.159 1247.39 757.048V737.435H1245.78V757.025H1238.51V769.53H1204.22V913.332H1280.07V797.767C1280.07 790.548 1277.39 783.604 1272.59 778.361C1267.79 773.118 1261.23 769.974 1254.25 769.575Z" fill="#2F2E41"/>
<path d="M1226.81 789.954H1216.73V798.29H1226.81V789.954Z" fill="white"/>
<path d="M1243.36 789.954H1233.27V798.29H1243.36V789.954Z" fill="white"/>
<path d="M1259.9 789.954H1249.81V798.29H1259.9V789.954Z" fill="white"/>
<path d="M1226.81 811.211H1216.73V819.548H1226.81V811.211Z" fill="white"/>
<path d="M1243.36 811.211H1233.27V819.548H1243.36V811.211Z" fill="white"/>
<path d="M1259.9 811.211H1249.81V819.548H1259.9V811.211Z" fill="white"/>
<path d="M1226.81 832.469H1216.73V840.806H1226.81V832.469Z" fill="white"/>
<path d="M1243.36 832.469H1233.27V840.806H1243.36V832.469Z" fill="white"/>
<path d="M1259.9 832.469H1249.81V840.806H1259.9V832.469Z" fill="white"/>
<path d="M1226.81 853.727H1216.73V862.063H1226.81V853.727Z" fill="white"/>
<path d="M1243.36 853.727H1233.27V862.063H1243.36V853.727Z" fill="white"/>
<path d="M1259.9 853.727H1249.81V862.063H1259.9V853.727Z" fill="white"/>
<path d="M1226.81 874.984H1216.73V883.321H1226.81V874.984Z" fill="white"/>
<path d="M1243.36 874.984H1233.27V883.321H1243.36V874.984Z" fill="white"/>
<path d="M1259.9 874.984H1249.81V883.321H1259.9V874.984Z" fill="white"/>
<path d="M1226.81 896.242H1216.73V904.579H1226.81V896.242Z" fill="white"/>
<path d="M1243.36 896.242H1233.27V904.579H1243.36V896.242Z" fill="white"/>
<path d="M1259.9 896.242H1249.81V904.579H1259.9V896.242Z" fill="white"/>
<path d="M1206.31 727.738V913.33H1159.46C1157.39 912.04 1155.35 910.712 1153.33 909.345C1152.7 908.921 1152.07 908.491 1151.44 908.056C1150.87 907.662 1150.31 907.269 1149.74 906.871C1147.75 905.466 1145.79 904.024 1143.85 902.545C1141.85 901.02 1139.87 899.456 1137.92 897.853C1135.39 895.767 1132.9 893.621 1130.46 891.415V699.501H1143.98V677.204H1157.7V655.945H1159.31V677.204H1169.37C1171.31 677.204 1173.16 677.997 1174.53 679.409C1175.89 680.821 1176.66 682.736 1176.66 684.732V699.501H1178.98C1184.87 699.501 1190.61 701.468 1195.33 705.109C1200.05 708.75 1203.51 713.87 1205.19 719.706C1205.48 720.734 1205.72 721.777 1205.9 722.831C1206.17 724.451 1206.31 726.093 1206.31 727.738Z" fill="#2F2E41"/>
<path d="M1184.73 716.386H1152.05V718.887H1184.73V716.386Z" fill="white"/>
<path d="M1184.73 731.808H1152.05V734.309H1184.73V731.808Z" fill="white"/>
<path d="M1184.73 747.23H1152.05V749.731H1184.73V747.23Z" fill="white"/>
<path d="M1184.73 762.652H1152.05V765.153H1184.73V762.652Z" fill="white"/>
<path d="M1184.73 778.075H1152.05V780.576H1184.73V778.075Z" fill="white"/>
<path d="M1184.73 793.497H1152.05V795.998H1184.73V793.497Z" fill="white"/>
<path d="M1184.73 808.919H1152.05V811.42H1184.73V808.919Z" fill="white"/>
<path d="M1184.73 824.341H1152.05V826.842H1184.73V824.341Z" fill="white"/>
<path d="M1184.73 839.764H1152.05V842.264H1184.73V839.764Z" fill="white"/>
<path d="M1184.73 855.186H1152.05V857.686H1184.73V855.186Z" fill="white"/>
<path d="M1184.73 870.608H1152.05V873.109H1184.73V870.608Z" fill="white"/>
<path d="M1184.73 886.03H1152.05V888.531H1184.73V886.03Z" fill="white"/>
<path d="M1165.36 681.79H1155.28V690.126H1165.36V681.79Z" fill="white"/>
<path d="M1411.54 661.783H1123.29V672.197H1411.54V661.783Z" fill="#2F2E41"/>
<path d="M1267.93 656.038H1270.96C1271.68 656.038 1272.41 656.186 1273.08 656.474C1273.75 656.761 1274.36 657.183 1274.88 657.715C1275.39 658.247 1275.8 658.878 1276.08 659.573C1276.36 660.268 1276.5 661.013 1276.5 661.765H1262.39C1262.39 660.246 1262.97 658.789 1264.01 657.715C1265.05 656.641 1266.46 656.038 1267.93 656.038V656.038Z" fill="#2F2E41"/>
<path d="M1375.67 909.345C1375.07 909.754 1374.47 910.158 1373.86 910.556V910.561C1373.85 910.561 1373.85 910.561 1373.85 910.567H1373.84L1373.83 910.577L1373.8 910.593C1373.78 910.603 1373.77 910.609 1373.76 910.619C1373.29 910.928 1372.83 911.232 1372.35 911.537C1372.21 911.636 1372.07 911.725 1371.93 911.814C1371.68 911.977 1371.43 912.139 1371.17 912.302C1370.92 912.459 1370.67 912.622 1370.42 912.779C1370.1 912.978 1369.78 913.183 1369.46 913.377C1368.76 913.812 1368.07 914.242 1367.37 914.666C1367.11 914.824 1366.85 914.976 1366.6 915.133C1366.34 915.285 1366.08 915.437 1365.82 915.589V915.605L1365.79 915.61L1365.78 915.615L1365.77 915.626H1365.77C1365.06 916.045 1364.35 916.465 1363.64 916.874L1363.63 916.879C1363.06 917.209 1362.48 917.534 1361.91 917.859C1360.54 918.63 1359.16 919.387 1357.77 920.129C1356.81 920.648 1355.84 921.152 1354.86 921.65C1354.27 921.954 1353.68 922.253 1353.09 922.551C1352.59 922.798 1352.1 923.044 1351.6 923.285C1351.47 923.354 1351.34 923.422 1351.2 923.485C1350.97 923.595 1350.75 923.705 1350.52 923.81C1350.34 923.899 1350.15 923.988 1349.96 924.077C1349.52 924.297 1349.07 924.507 1348.62 924.717C1348.12 924.953 1347.62 925.183 1347.12 925.414C1345.23 926.284 1343.32 927.123 1341.41 927.93C1334.57 930.822 1327.59 933.318 1320.49 935.407C1320.16 935.506 1319.82 935.606 1319.49 935.7C1316.45 936.581 1313.38 937.387 1310.3 938.117C1304.92 939.396 1299.48 940.446 1294 941.268C1293.99 941.268 1293.97 941.273 1293.96 941.273C1293.31 941.373 1292.65 941.467 1292 941.561C1291.94 941.572 1291.88 941.582 1291.82 941.588C1291.81 941.593 1291.81 941.593 1291.8 941.588H1291.79C1291.07 941.687 1290.34 941.787 1289.61 941.881C1289.56 941.892 1289.51 941.897 1289.46 941.902C1288.78 941.986 1288.09 942.07 1287.41 942.149C1286.67 942.233 1285.94 942.311 1285.2 942.39H1285.19C1284.06 942.505 1282.94 942.615 1281.81 942.71C1281.79 942.71 1281.77 942.715 1281.75 942.715C1281.3 942.757 1280.86 942.788 1280.41 942.825H1280.4C1275.15 943.255 1269.85 943.468 1264.5 943.465C1258.69 943.465 1252.94 943.215 1247.25 942.715C1247.23 942.715 1247.21 942.71 1247.18 942.71C1245.97 942.605 1244.76 942.489 1243.55 942.364C1243.23 942.332 1242.92 942.295 1242.6 942.264C1242.54 942.259 1242.48 942.254 1242.41 942.243C1242.32 942.233 1242.22 942.222 1242.12 942.212C1242.07 942.206 1242.01 942.201 1241.96 942.191C1241.54 942.144 1241.12 942.096 1240.69 942.044C1240.22 941.986 1239.75 941.929 1239.27 941.866C1238.8 941.808 1238.32 941.745 1237.85 941.677C1237.75 941.666 1237.64 941.656 1237.54 941.635C1237.2 941.593 1236.85 941.546 1236.51 941.493C1236.35 941.472 1236.18 941.446 1236.02 941.42C1235.69 941.373 1235.37 941.326 1235.04 941.273C1235.03 941.273 1235.01 941.268 1235 941.268C1224.64 939.722 1214.41 937.34 1204.4 934.143H1204.4C1203.86 933.97 1203.31 933.792 1202.77 933.614C1202.61 933.567 1202.45 933.514 1202.28 933.456C1200.87 932.99 1199.47 932.507 1198.08 932.009C1196.15 931.328 1194.24 930.615 1192.35 929.87C1191.83 929.666 1191.32 929.461 1190.8 929.257C1189.77 928.838 1188.74 928.418 1187.72 927.988C1185.98 927.254 1184.25 926.498 1182.54 925.718H1182.53V925.713C1181.18 925.094 1179.83 924.465 1178.49 923.81C1178.24 923.694 1178 923.579 1177.76 923.459C1177.71 923.444 1177.67 923.423 1177.62 923.396C1177.62 923.396 1177.62 923.39 1177.61 923.39C1177.26 923.223 1176.91 923.05 1176.56 922.877L1176.55 922.871C1174.76 921.985 1172.99 921.071 1171.23 920.129C1169.04 918.965 1166.88 917.76 1164.73 916.512C1162.96 915.479 1161.2 914.418 1159.46 913.33C1157.39 912.04 1155.35 910.712 1153.33 909.345H1375.67Z" fill="#2F2E41"/>
<path d="M1344.99 692.058C1345.55 692.058 1346.01 691.589 1346.01 691.009C1346.01 690.43 1345.55 689.961 1344.99 689.961C1344.43 689.961 1343.98 690.43 1343.98 691.009C1343.98 691.589 1344.43 692.058 1344.99 692.058Z" fill="white"/>
<path d="M1283.34 633.068C1283.9 633.068 1284.36 632.598 1284.36 632.019C1284.36 631.44 1283.9 630.97 1283.34 630.97C1282.78 630.97 1282.33 631.44 1282.33 632.019C1282.33 632.598 1282.78 633.068 1283.34 633.068Z" fill="white"/>
<path d="M1232.33 686.815C1232.89 686.815 1233.35 686.346 1233.35 685.767C1233.35 685.188 1232.89 684.718 1232.33 684.718C1231.77 684.718 1231.32 685.188 1231.32 685.767C1231.32 686.346 1231.77 686.815 1232.33 686.815Z" fill="white"/>
<path d="M1223.7 633.964C1224.26 633.964 1224.72 633.495 1224.72 632.915C1224.72 632.336 1224.26 631.867 1223.7 631.867C1223.14 631.867 1222.69 632.336 1222.69 632.915C1222.69 633.495 1223.14 633.964 1223.7 633.964Z" fill="white"/>
<path d="M1155.7 620.757C1156.26 620.757 1156.72 620.288 1156.72 619.709C1156.72 619.13 1156.26 618.66 1155.7 618.66C1155.14 618.66 1154.69 619.13 1154.69 619.709C1154.69 620.288 1155.14 620.757 1155.7 620.757Z" fill="white"/>
<path d="M1387.69 834.843L1386.67 834.871L1388.19 892.501L1389.21 892.472L1387.69 834.843Z" fill="#B3B3B3"/>
<path d="M1368.55 718.272H1354.22C1353.9 718.271 1353.58 718.343 1353.29 718.483C1352.99 718.624 1352.73 718.829 1352.53 719.084C1352.33 719.045 1352.12 719.024 1351.92 719.024C1351.02 719.024 1350.15 719.394 1349.52 720.053C1348.88 720.711 1348.52 721.604 1348.52 722.535C1348.52 723.467 1348.88 724.36 1349.52 725.018C1350.15 725.677 1351.02 726.047 1351.92 726.047C1352.43 726.047 1352.94 725.925 1353.4 725.691L1353.64 728.726L1354.59 740.717C1354.63 740.867 1354.69 741.012 1354.77 741.148C1354.96 741.512 1355.24 741.816 1355.59 742.028C1355.93 742.24 1356.33 742.352 1356.73 742.352H1366.05C1366.45 742.351 1366.84 742.239 1367.19 742.028C1367.53 741.816 1367.82 741.512 1368.01 741.148C1368.08 741.011 1368.14 740.867 1368.19 740.717L1370.69 721.267C1370.8 720.921 1370.82 720.554 1370.76 720.197C1370.7 719.84 1370.56 719.502 1370.36 719.211C1370.15 718.92 1369.88 718.683 1369.56 718.52C1369.25 718.357 1368.9 718.272 1368.55 718.272ZM1351.92 725.044C1351.28 725.043 1350.66 724.779 1350.2 724.308C1349.75 723.838 1349.49 723.2 1349.49 722.535C1349.49 721.871 1349.75 721.233 1350.2 720.763C1350.66 720.292 1351.28 720.028 1351.92 720.027C1351.96 720.027 1352 720.039 1352.05 720.042C1351.95 720.446 1351.96 720.869 1352.08 721.267L1353.11 724.71C1352.75 724.927 1352.34 725.042 1351.92 725.044V725.044Z" fill="#F2F2F2"/>
<path d="M1363.64 916.876L1361.25 912.378L1362.42 911.806L1363.36 911.345L1367.46 909.347L1369.92 908.147L1370.93 907.649L1371.74 907.255L1373.08 909.347L1373.76 910.401L1373.86 910.558V910.564C1373.84 910.572 1373.82 910.582 1373.8 910.595C1373.78 910.605 1373.77 910.611 1373.76 910.621C1373.29 910.931 1372.83 911.235 1372.35 911.539C1372.21 911.638 1372.07 911.727 1371.93 911.817C1371.68 911.979 1371.43 912.142 1371.17 912.304C1370.92 912.461 1370.67 912.624 1370.42 912.781C1369.41 913.421 1368.39 914.05 1367.37 914.669C1367.11 914.826 1366.85 914.978 1366.59 915.135C1366.34 915.287 1366.08 915.439 1365.82 915.591V915.607L1365.79 915.612L1365.78 915.617L1365.77 915.628H1365.77C1365.06 916.047 1364.35 916.467 1363.64 916.876Z" fill="#2F2E41"/>
<g opacity="0.49">
<path opacity="0.49" d="M1361.22 710.39C1361.34 710.232 1361.44 710.065 1361.53 709.892C1361.35 709.969 1361.17 710.029 1360.98 710.072L1361.22 710.39Z" fill="white"/>
<path opacity="0.49" d="M1362.53 699.695C1361.62 697.888 1360.59 696.092 1360.23 694.089C1359.86 692.083 1360.18 690.021 1360.29 687.982C1360.41 685.943 1360.26 683.764 1359.12 682.097C1357.57 687.19 1356.02 692.801 1358.02 697.73C1358.88 699.868 1360.35 701.688 1361.3 703.787C1362.17 705.703 1362.52 708.092 1361.53 709.892C1363.14 709.221 1364.15 707.318 1364.21 705.486C1364.28 703.448 1363.44 701.502 1362.53 699.695Z" fill="white"/>
</g>
<g opacity="0.49">
<path opacity="0.49" d="M1359.5 717.207C1359.54 717.145 1359.59 717.08 1359.62 717.012C1359.55 717.042 1359.48 717.066 1359.4 717.083L1359.5 717.207Z" fill="white"/>
<path opacity="0.49" d="M1360.01 713.05C1359.61 712.374 1359.31 711.64 1359.11 710.872C1359.03 710.083 1359.04 709.287 1359.14 708.5C1359.24 707.707 1359.08 706.902 1358.68 706.213C1358.08 708.192 1357.48 710.372 1358.25 712.287C1358.59 713.117 1359.16 713.825 1359.53 714.64C1359.72 715.001 1359.83 715.404 1359.84 715.815C1359.86 716.226 1359.78 716.636 1359.62 717.012C1359.93 716.854 1360.19 716.611 1360.38 716.309C1360.56 716.006 1360.66 715.657 1360.66 715.3C1360.63 714.505 1360.41 713.73 1360.01 713.05Z" fill="white"/>
</g>
<path d="M1140.54 725.801L1139.53 725.816L1141.05 831.679L1142.06 831.663L1140.54 725.801Z" fill="#B3B3B3"/>
<path d="M1129.38 815.445L1128.36 815.473L1129.89 873.102L1130.9 873.074L1129.38 815.445Z" fill="#B3B3B3"/>
<path d="M1331.53 852.343V850.342C1331.53 849.578 1331.24 848.842 1330.74 848.286C1330.23 847.73 1329.53 847.396 1328.79 847.352V839.538H1328.15V847.343H1325.26V852.325H1311.59V909.619H1341.82V863.575C1341.82 860.699 1340.75 857.933 1338.84 855.844C1336.92 853.755 1334.31 852.502 1331.53 852.343Z" fill="#2F2E41"/>
<path d="M1320.6 860.462H1316.58V863.784H1320.6V860.462Z" fill="white"/>
<path d="M1327.19 860.462H1323.17V863.784H1327.19V860.462Z" fill="white"/>
<path d="M1333.78 860.462H1329.76V863.784H1333.78V860.462Z" fill="white"/>
<path d="M1320.6 868.932H1316.58V872.254H1320.6V868.932Z" fill="white"/>
<path d="M1327.19 868.932H1323.17V872.254H1327.19V868.932Z" fill="white"/>
<path d="M1333.78 868.932H1329.76V872.254H1333.78V868.932Z" fill="white"/>
<path d="M1320.6 877.402H1316.58V880.723H1320.6V877.402Z" fill="white"/>
<path d="M1327.19 877.402H1323.17V880.723H1327.19V877.402Z" fill="white"/>
<path d="M1333.78 877.402H1329.76V880.723H1333.78V877.402Z" fill="white"/>
<path d="M1320.6 885.871H1316.58V889.193H1320.6V885.871Z" fill="white"/>
<path d="M1327.19 885.871H1323.17V889.193H1327.19V885.871Z" fill="white"/>
<path d="M1333.78 885.871H1329.76V889.193H1333.78V885.871Z" fill="white"/>
<path d="M1320.6 894.341H1316.58V897.662H1320.6V894.341Z" fill="white"/>
<path d="M1327.19 894.341H1323.17V897.662H1327.19V894.341Z" fill="white"/>
<path d="M1333.78 894.341H1329.76V897.662H1333.78V894.341Z" fill="white"/>
<path d="M1320.6 902.811H1316.58V906.132H1320.6V902.811Z" fill="white"/>
<path d="M1327.19 902.811H1323.17V906.132H1327.19V902.811Z" fill="white"/>
<path d="M1333.78 902.811H1329.76V906.132H1333.78V902.811Z" fill="white"/>
<path d="M1301.54 824.425H1300.61V818.539C1300.61 817.744 1300.31 816.981 1299.76 816.419C1299.22 815.856 1298.48 815.54 1297.71 815.54H1293.7V807.071H1293.06V815.54H1287.59V824.425H1282.21V909.62H1312.43V835.676C1312.43 834.198 1312.15 832.735 1311.6 831.37C1311.05 830.005 1310.25 828.765 1309.24 827.72C1308.23 826.676 1307.03 825.847 1305.71 825.282C1304.38 824.716 1302.97 824.425 1301.54 824.425Z" fill="#2F2E41"/>
<path d="M1303.83 831.151H1290.81V832.147H1303.83V831.151Z" fill="white"/>
<path d="M1303.83 837.295H1290.81V838.292H1303.83V837.295Z" fill="white"/>
<path d="M1303.83 843.44H1290.81V844.437H1303.83V843.44Z" fill="white"/>
<path d="M1303.83 849.585H1290.81V850.581H1303.83V849.585Z" fill="white"/>
<path d="M1303.83 855.729H1290.81V856.726H1303.83V855.729Z" fill="white"/>
<path d="M1303.83 861.874H1290.81V862.87H1303.83V861.874Z" fill="white"/>
<path d="M1303.83 868.019H1290.81V869.015H1303.83V868.019Z" fill="white"/>
<path d="M1303.83 874.163H1290.81V875.16H1303.83V874.163Z" fill="white"/>
<path d="M1303.83 880.308H1290.81V881.304H1303.83V880.308Z" fill="white"/>
<path d="M1303.83 886.453H1290.81V887.449H1303.83V886.453Z" fill="white"/>
<path d="M1303.83 892.597H1290.81V893.594H1303.83V892.597Z" fill="white"/>
<path d="M1303.83 898.742H1290.81V899.738H1303.83V898.742Z" fill="white"/>
<path d="M1296.11 817.367H1292.09V820.689H1296.11V817.367Z" fill="white"/>
<path d="M1424.79 857.879V862.766C1424.06 863.73 1423.32 864.695 1422.57 865.644C1422.41 865.854 1422.25 866.058 1422.09 866.262C1421.84 866.572 1421.6 866.881 1421.35 867.185C1421.27 867.29 1421.19 867.39 1421.1 867.494C1420.69 868.008 1420.27 868.522 1419.84 869.036C1419.84 869.036 1419.85 869.041 1419.84 869.041C1419.43 869.544 1419.02 870.048 1418.6 870.551C1418.37 870.829 1418.13 871.101 1417.9 871.379C1417.55 871.804 1417.19 872.223 1416.82 872.643C1416.82 872.648 1416.82 872.653 1416.81 872.659L1416.79 872.674V857.879L1424.79 857.879Z" fill="#2F2E41"/>
<path d="M1435.23 847.688C1433.9 849.806 1432.53 851.892 1431.13 853.948C1431.13 853.953 1431.13 853.953 1431.12 853.958C1430.28 855.195 1429.43 856.422 1428.56 857.638C1428.01 858.414 1427.45 859.187 1426.89 859.956C1426.33 860.726 1425.76 861.49 1425.18 862.247C1425.06 862.42 1424.92 862.593 1424.79 862.766C1424.06 863.73 1423.32 864.695 1422.57 865.644C1422.41 865.854 1422.24 866.058 1422.09 866.263C1421.84 866.572 1421.6 866.881 1421.35 867.185C1421.27 867.29 1421.18 867.39 1421.1 867.495C1420.69 868.008 1420.27 868.522 1419.84 869.036C1419.84 869.036 1419.85 869.041 1419.84 869.041C1419.43 869.545 1419.02 870.048 1418.6 870.551C1418.37 870.829 1418.13 871.102 1417.9 871.38H1401.33C1399.56 871.378 1397.86 870.652 1396.61 869.36C1395.36 868.069 1394.66 866.317 1394.66 864.491V854.577C1394.66 852.75 1395.36 850.999 1396.61 849.708C1397.86 848.416 1399.56 847.69 1401.33 847.688H1435.23Z" fill="#2F2E41"/>
<path d="M1443.99 762.83C1442.97 762.467 1441.9 762.283 1440.82 762.285H1438.1C1437.11 762.286 1436.12 762.44 1435.17 762.741C1433.17 763.391 1431.42 764.683 1430.18 766.429C1428.94 768.175 1428.27 770.284 1428.26 772.451V855.154C1428.26 855.464 1428.28 855.768 1428.3 856.067C1428.35 856.597 1428.43 857.123 1428.56 857.639C1429.42 856.423 1430.28 855.196 1431.12 853.959C1431.12 853.954 1431.13 853.954 1431.13 853.949C1432.53 851.893 1433.9 849.807 1435.23 847.689C1435.94 846.551 1436.65 845.403 1437.35 844.25C1442.37 835.923 1446.82 827.24 1450.66 818.267V772.451C1450.66 770.328 1450.02 768.26 1448.82 766.535C1447.62 764.81 1445.93 763.515 1443.99 762.83Z" fill="#2F2E41"/>
<path d="M1325.61 916.626L1318.7 913.212L1328.19 883.379L1338.39 888.417L1325.61 916.626Z" fill="#FFB6B6"/>
<path d="M1371.93 911.816C1371.43 912.142 1370.92 912.461 1370.42 912.781C1369.41 913.421 1368.39 914.05 1367.37 914.668C1366.85 914.978 1366.34 915.287 1365.82 915.591V915.607L1365.79 915.612L1365.78 915.617L1365 915.817L1363.88 912.755L1363.36 911.345L1362.63 909.347L1361.29 905.693L1354.24 886.452L1365.2 883.658L1365.61 885.393H1365.62L1365.82 886.253L1369.65 902.306L1370.44 905.588L1370.46 905.688L1370.93 907.649L1371.34 909.347L1371.79 911.245L1371.93 911.816Z" fill="#FFB6B6"/>
<path d="M1343.96 786.956C1344.94 788.61 1346.51 789.799 1348.34 790.272C1350.16 790.744 1352.09 790.462 1353.71 789.485C1354.04 789.281 1354.35 789.049 1354.64 788.792L1376.48 801.741L1375.53 788.448L1354.94 778.189C1353.82 777.026 1352.35 776.28 1350.78 776.068C1349.2 775.856 1347.61 776.19 1346.23 777.018C1344.66 777.992 1343.53 779.571 1343.09 781.406C1342.64 783.242 1342.93 785.184 1343.87 786.806C1343.9 786.857 1343.93 786.907 1343.96 786.956Z" fill="#FFB6B6"/>
<path d="M1364.66 793.909L1370.95 799.296L1388.29 810.22C1389.43 810.956 1390.7 811.453 1392.02 811.682C1393.35 811.912 1394.7 811.87 1396.01 811.559C1397.32 811.248 1398.55 810.673 1399.65 809.868C1400.74 809.063 1401.67 808.044 1402.38 806.868L1402.39 806.859C1403.67 804.673 1404.13 802.074 1403.66 799.563L1395.96 759.785C1395.67 758.223 1395.06 756.744 1394.18 755.447C1393.29 754.151 1392.14 753.068 1390.81 752.273C1389.47 751.477 1387.99 750.988 1386.46 750.839C1384.93 750.69 1383.38 750.885 1381.93 751.409C1379.49 752.295 1377.47 754.108 1376.28 756.48C1375.09 758.852 1374.81 761.603 1375.51 764.175L1383.57 792.405L1370.95 784.893L1364.66 793.909Z" fill="#2F2E41"/>
<path d="M1437.35 836.087C1437.34 836.071 1437.33 836.013 1437.32 835.924L1437.3 835.866C1437.27 835.678 1437.22 835.468 1437.18 835.237C1436.14 829.925 1434.81 824.679 1433.2 819.525C1432.24 816.368 1430.97 813.322 1429.4 810.434C1429.35 810.34 1429.3 810.245 1429.24 810.151L1429.05 809.836L1427.48 810.434L1427.41 810.455L1403.42 819.541L1396.48 822.167L1396.27 822.251L1395.08 827.232L1378.49 825.014L1364.97 823.205L1361.09 822.686C1359.41 822.46 1357.7 822.581 1356.06 823.044C1354.43 823.507 1352.89 824.301 1351.56 825.381C1350.16 826.499 1349 827.892 1348.13 829.48C1347.26 831.067 1346.7 832.818 1346.5 834.629C1346.45 835.028 1346.42 835.431 1346.4 835.83L1345.23 881.006V881.064L1345.77 882.186L1357.98 915.887L1367.5 910.053L1370.7 907.402L1373.88 908.993L1365.72 884.917C1366.46 883.749 1366.92 882.42 1367.08 881.034C1367.24 879.648 1367.08 878.244 1366.62 876.932L1367.5 874.29C1369.33 868.833 1368.47 866.211 1367.37 862.898C1366.39 860.204 1365.81 857.369 1365.65 854.494L1365.47 850.756C1370.07 851.589 1374.36 852.517 1378.49 853.45C1379.87 853.76 1381.24 854.073 1382.59 854.389C1386.45 855.275 1390.17 856.129 1393.81 856.842C1401.19 858.295 1408.26 859.181 1415.52 858.63C1415.66 858.62 1415.8 858.609 1415.95 858.594C1417.71 858.447 1419.49 858.211 1421.28 857.881C1422.29 857.692 1423.31 857.477 1424.33 857.225C1424.62 857.152 1424.91 857.078 1425.19 857.005C1425.98 856.79 1426.74 856.475 1427.46 856.067C1428.47 855.481 1429.42 854.773 1430.27 853.959C1430.28 853.954 1430.28 853.954 1430.28 853.948C1431.68 851.893 1433.05 849.807 1434.38 847.689C1435.09 846.551 1435.8 845.403 1436.5 844.249C1437.51 841.371 1437.9 838.467 1437.35 836.087Z" fill="#2F2E41"/>
<path d="M1438.36 827.599C1438.29 827.263 1438.19 826.922 1438.09 826.592C1437.28 824.09 1436.34 821.637 1435.28 819.242C1434.08 816.516 1432.64 813.595 1430.93 810.434C1430.1 808.903 1429.21 807.311 1428.26 805.658C1427.79 804.83 1427.29 803.986 1426.78 803.126C1426.76 803.086 1426.73 803.048 1426.71 803.01L1426.56 802.759L1402.82 806.041L1393.98 807.262L1393.45 811.813L1393.33 812.94C1393.32 812.94 1393.32 812.94 1393.33 812.945L1392.97 816.018V816.023L1392.5 820.081L1392.46 820.075L1379.34 818.319L1365.82 816.51L1358.56 815.54C1356.88 815.314 1355.17 815.435 1353.53 815.898C1351.89 816.361 1350.36 817.155 1349.02 818.235C1347.63 819.353 1346.46 820.746 1345.59 822.334C1344.73 823.922 1344.17 825.672 1343.96 827.483C1343.92 827.85 1343.89 828.228 1343.87 828.6L1337.02 845.371C1332.92 855.402 1330.31 866.013 1329.28 876.849L1324.25 893.442L1320.14 904.75L1330.79 905.772L1338.69 904.75L1344.62 885.468C1345.32 884.403 1345.99 883.308 1346.62 882.186C1347.65 880.353 1348.56 878.455 1349.35 876.503L1362.75 843.578C1363.78 843.762 1364.81 843.937 1365.82 844.103C1370.52 844.889 1375.02 845.53 1379.34 846.027C1393.38 847.647 1405.54 847.773 1416.37 846.399C1419.41 846.016 1422.35 845.513 1425.18 844.889C1426.22 844.664 1427.25 844.421 1428.26 844.16C1428.5 844.103 1428.73 844.045 1428.97 843.982C1431.07 843.423 1432.99 842.33 1434.58 840.802C1436.16 839.275 1437.34 837.361 1438.03 835.237C1438.84 832.776 1438.96 830.126 1438.36 827.599Z" fill="#2F2E41"/>
<path d="M1387.88 728.58C1396.95 728.58 1404.3 720.816 1404.3 711.237C1404.3 701.659 1396.95 693.895 1387.88 693.895C1378.81 693.895 1371.46 701.659 1371.46 711.237C1371.46 720.816 1378.81 728.58 1387.88 728.58Z" fill="#FFB6B6"/>
<path d="M1429.98 804.336C1429.96 804.142 1429.93 803.948 1429.88 803.754C1429.49 801.626 1428.48 799.539 1427.5 797.515C1426.57 795.586 1425.68 793.762 1425.31 791.948C1424.95 790.16 1425.17 788.367 1425.37 786.637C1425.6 784.76 1425.83 782.82 1425.31 780.938C1422.66 771.326 1421.19 768.345 1416.62 759.535C1415.47 755.661 1410.52 748.886 1407.52 746.276C1404.51 743.667 1404.52 740.953 1400.63 740.443C1401.08 739.566 1398.17 736.64 1398.07 735.652C1398 735.013 1397.82 734.393 1397.52 733.829C1397.22 733.264 1396.82 732.767 1396.34 732.364C1395.87 731.977 1395.33 731.688 1394.76 731.516C1394.19 731.343 1393.59 731.289 1392.99 731.358L1385.36 732.244C1384.13 732.402 1383.02 733.054 1382.26 734.056C1381.5 735.059 1381.15 736.331 1381.29 737.597C1381.34 737.986 1381.42 738.37 1381.55 738.739C1374.46 748.061 1377.64 748.321 1377.31 756.353L1370.49 764.591C1373.6 762.717 1375.14 764.972 1375.19 765.899C1375.35 768.897 1377.29 770.534 1378.37 773.324C1379.64 776.546 1380 777.483 1382.08 780.218C1382.5 780.774 1382.15 780.744 1382.61 781.279C1383.03 781.803 1383.14 782.293 1383.67 782.87L1384.2 784.991L1385.36 790.543L1389.41 808.41L1392.79 808.294L1393.26 811.781L1393.38 812.593L1395.57 820.704L1395.73 821.312L1398.73 819.839L1416.62 811.063L1430 804.499L1429.98 804.336Z" fill="#484759"/>
<path opacity="0.2" d="M1369.46 775.402C1370.99 779.263 1373.13 782.831 1375.81 785.955C1376.27 786.52 1376.75 787.075 1377.26 787.631L1379.85 791.841C1389.43 784.426 1397.19 755.23 1397.19 755.23L1386.38 753.059L1369.46 775.402Z" fill="black"/>
<path d="M1362.92 730.2C1363.87 731.879 1364.14 733.873 1363.69 735.758C1363.23 737.643 1362.08 739.27 1360.48 740.293C1360.16 740.495 1359.81 740.669 1359.46 740.813L1360.22 766.819L1349.32 759.73L1350.27 736.121C1349.8 734.55 1349.85 732.865 1350.42 731.328C1350.98 729.791 1352.01 728.489 1353.37 727.626C1354.93 726.649 1356.8 726.353 1358.58 726.804C1360.35 727.256 1361.88 728.416 1362.83 730.032C1362.86 730.087 1362.89 730.144 1362.92 730.2Z" fill="#FFB6B6"/>
<path d="M1361.18 757.003L1349.19 758.764L1349.71 784.41C1349.74 786.24 1350.22 788.031 1351.11 789.614C1352 791.196 1353.26 792.518 1354.79 793.453C1356.65 794.584 1358.81 795.059 1360.96 794.808C1363.1 794.556 1365.11 793.591 1366.67 792.059L1394.98 763.935C1396.97 761.984 1398.16 759.318 1398.31 756.487C1398.45 753.655 1397.54 750.873 1395.77 748.713C1394.03 746.583 1391.54 745.255 1388.85 745.021C1386.16 744.787 1383.49 745.667 1381.43 747.466C1381.34 747.537 1381.26 747.608 1381.19 747.681C1380.91 747.94 1380.64 748.213 1380.39 748.501L1361.7 770.711L1361.18 757.003Z" fill="#2F2E41"/>
<path d="M1327.82 911.754L1320.34 908.053L1319.17 907.471L1317.3 912.221L1304.22 915.194C1303.58 915.34 1302.99 915.696 1302.56 916.21C1302.12 916.724 1301.85 917.368 1301.8 918.049C1301.74 918.73 1301.9 919.412 1302.24 919.996C1302.59 920.579 1303.1 921.033 1303.72 921.291L1316.49 926.675L1320.54 922.906L1319.55 927.965L1324.36 929.994L1329.63 912.656L1327.82 911.754Z" fill="#2F2E41"/>
<path d="M1379.99 906.348V906.464L1379.85 906.448C1379.68 906.574 1379.51 906.689 1379.34 906.81C1378.13 907.67 1376.91 908.515 1375.67 909.347C1375.07 909.756 1374.47 910.16 1373.86 910.558V910.564C1373.85 910.564 1373.85 910.569 1373.84 910.569H1373.84L1373.83 910.579L1373.8 910.595C1373.78 910.606 1373.77 910.611 1373.76 910.621V813.705C1373.76 810.895 1372.84 808.614 1371.72 808.609H1287.23C1286.1 808.614 1285.19 810.895 1285.19 813.705V942.392C1284.06 942.507 1282.94 942.617 1281.81 942.712C1281.79 942.712 1281.77 942.717 1281.75 942.717C1281.3 942.759 1280.86 942.791 1280.41 942.827H1280.4C1280.14 942.313 1279.87 941.794 1279.61 941.27V807.094C1279.61 806.318 1279.64 805.537 1279.69 804.766C1279.76 803.708 1279.89 802.654 1280.07 801.61C1280.93 796.739 1282.87 793.442 1285.07 793.431H1373.88C1374.2 793.433 1374.52 793.503 1374.81 793.636C1375.24 793.834 1375.63 794.117 1375.96 794.469C1376.41 794.947 1376.79 795.485 1377.09 796.068C1378.18 798.045 1378.96 800.991 1379.23 804.42C1379.23 804.451 1379.24 804.483 1379.24 804.514C1379.31 805.364 1379.34 806.229 1379.34 807.094L1379.41 818.329L1379.45 825.029L1379.59 846.052L1379.64 853.518L1379.99 906.348Z" fill="#2F2E41"/>
<path d="M1313.53 762.262L1307.65 788.976L1303.9 793.226H1301.19L1312.35 744.654L1312.91 752.906V752.912L1313.53 762.262Z" fill="#2F2E41"/>
<path d="M1341.81 789.563L1307.33 789.338L1304.27 789.317L1302.09 789.301L1299.55 789.285H1299.53C1299.16 789.286 1298.81 789.437 1298.55 789.705L1294.25 794.14C1294.16 794.237 1294.08 794.35 1294.02 794.475C1294 794.511 1293.97 794.55 1293.96 794.591C1293.86 794.814 1293.83 795.057 1293.85 795.299C1293.87 795.541 1293.94 795.774 1294.07 795.978C1294.2 796.182 1294.37 796.351 1294.58 796.469C1294.78 796.588 1295.01 796.652 1295.25 796.656H1339.91C1340.18 796.655 1340.44 796.576 1340.67 796.428C1340.89 796.279 1341.07 796.068 1341.19 795.818L1341.54 795.031L1342.26 793.432L1343.08 791.629C1343.16 791.437 1343.21 791.227 1343.21 791.015C1343.21 790.633 1343.06 790.266 1342.8 789.994C1342.54 789.723 1342.18 789.568 1341.81 789.563Z" fill="#2F2E41"/>
<path opacity="0.17" d="M1341.54 795.03L1341.19 795.819C1341.07 796.068 1340.89 796.279 1340.67 796.428C1340.44 796.576 1340.18 796.655 1339.91 796.657H1295.25C1295.01 796.652 1294.78 796.588 1294.58 796.47C1294.37 796.352 1294.2 796.183 1294.07 795.979C1293.94 795.775 1293.86 795.542 1293.85 795.3C1293.83 795.058 1293.87 794.815 1293.96 794.592C1293.97 794.551 1294 794.512 1294.02 794.477L1341.54 795.03Z" fill="black"/>
<path opacity="0.17" d="M1312.91 752.906V752.912L1303.34 793.226H1301.19L1312.35 744.654L1312.91 752.906Z" fill="black"/>
<path d="M1324.64 760.293L1311.11 653.913C1311.06 653.515 1310.86 653.152 1310.55 652.907L1301.23 640.859L1300.39 640.193C1300.08 639.95 1299.69 639.843 1299.31 639.894L1297.91 640.088C1297.52 640.14 1297.17 640.348 1296.93 640.666C1296.69 640.985 1296.59 641.388 1296.64 641.787L1310.66 752.009V752.015L1311.52 758.757L1312.54 766.762V766.773L1314.12 779.23C1314.15 779.443 1314.22 779.648 1314.33 779.831C1314.44 780.014 1314.59 780.17 1314.76 780.289C1314.93 780.41 1315.12 780.492 1315.33 780.53C1315.53 780.568 1315.74 780.561 1315.94 780.509L1316.83 780.278C1317.17 780.188 1317.47 779.976 1317.67 779.68L1318.07 779.098L1318.25 778.826L1324.38 761.368C1324.6 761.056 1324.69 760.672 1324.64 760.293Z" fill="#2F2E41"/>
<path opacity="0.17" d="M1301.23 640.86L1318.25 778.828L1318.07 779.098L1317.67 779.679C1317.47 779.975 1317.17 780.187 1316.83 780.277L1315.94 780.508C1315.74 780.559 1315.53 780.566 1315.33 780.528C1315.12 780.491 1314.93 780.409 1314.76 780.288C1314.58 780.167 1314.44 780.011 1314.33 779.828C1314.22 779.646 1314.15 779.442 1314.12 779.229L1296.64 641.789C1296.59 641.39 1296.69 640.986 1296.93 640.667C1297.17 640.347 1297.52 640.139 1297.9 640.086L1299.31 639.895C1299.5 639.869 1299.69 639.882 1299.88 639.933C1300.06 639.985 1300.24 640.074 1300.39 640.196L1301.23 640.86Z" fill="black"/>
<path d="M1301.73 644.805L1310.76 658.127L1321.5 742.535L1315.68 754.467L1301.73 644.805Z" fill="#9CC0F5"/>
<path d="M1438.11 814.984C1438.11 815.906 1437.84 816.806 1437.33 817.566C1436.83 818.326 1436.11 818.91 1435.28 819.241C1434.88 819.397 1434.47 819.493 1434.04 819.524C1433.93 819.534 1433.82 819.54 1433.7 819.54H1425.18V862.247C1425.06 862.42 1424.92 862.593 1424.79 862.766C1424.06 863.73 1423.32 864.695 1422.57 865.644C1422.41 865.854 1422.25 866.058 1422.09 866.263C1421.84 866.572 1421.6 866.881 1421.35 867.185C1421.27 867.29 1421.18 867.39 1421.1 867.495C1420.69 868.008 1420.27 868.522 1419.84 869.036C1419.84 869.036 1419.85 869.041 1419.84 869.041C1419.43 869.545 1419.02 870.048 1418.6 870.551C1417.83 870.108 1417.21 869.433 1416.82 868.617C1416.82 868.611 1416.82 868.606 1416.81 868.596C1416.8 868.584 1416.8 868.572 1416.8 868.559C1416.51 867.946 1416.36 867.273 1416.37 866.593V819.54H1397.27C1396.7 819.543 1396.14 819.431 1395.62 819.209C1394.97 818.938 1394.38 818.507 1393.92 817.952C1393.46 817.397 1393.13 816.734 1392.97 816.022V816.017C1392.74 814.981 1392.86 813.893 1393.33 812.944C1393.32 812.939 1393.32 812.939 1393.33 812.939C1393.53 812.525 1393.79 812.146 1394.11 811.817C1394.11 811.812 1394.11 811.812 1394.11 811.807C1394.52 811.372 1395.01 811.027 1395.55 810.791C1396.1 810.555 1396.68 810.434 1397.27 810.433H1433.7C1434.87 810.434 1435.99 810.913 1436.82 811.767C1437.64 812.62 1438.11 813.777 1438.11 814.984Z" fill="#2F2E41"/>
<path d="M1437.82 727.254C1436 727.254 1434.21 727.623 1432.53 728.34C1430.85 729.057 1429.33 730.108 1428.05 731.433C1426.77 732.758 1425.75 734.331 1425.06 736.062C1424.36 737.793 1424 739.649 1424 741.522V741.522C1424.01 744.832 1425.12 748.039 1427.16 750.593C1429.19 753.148 1432.03 754.892 1435.17 755.526V778.862H1443.99V727.254H1437.82Z" fill="#2F2E41"/>
<path d="M1405.31 706.886C1404.07 705.462 1405.94 701.694 1405.59 699.708C1405.18 697.432 1403.03 697.366 1402.51 695.12C1401.96 692.704 1399.75 691.389 1397.7 690.623C1392.46 688.671 1386.86 688.373 1381.49 689.759C1379.11 690.435 1376.77 691.275 1374.47 692.273C1372.89 692.922 1374.42 691.158 1372.83 691.806C1372.23 691.961 1371.71 692.369 1371.35 692.952C1371.07 693.578 1371.45 694.579 1372.05 694.452C1370.12 695.444 1368.18 696.436 1366.25 697.427C1367.33 698.748 1368.42 700.069 1369.5 701.391C1367.96 700.88 1366.32 703.018 1366.93 704.743C1367.17 705.287 1367.52 705.754 1367.96 706.104C1368.39 706.454 1368.89 706.675 1369.42 706.75C1371.16 707.144 1369.84 709.072 1371.61 709.034C1373.38 708.997 1385.75 704.767 1386.61 706.571C1387.23 707.855 1387.16 709.556 1388.03 710.614C1389.16 711.967 1391.11 711.472 1392.54 710.591C1393.97 709.71 1395.42 708.499 1397.02 708.71C1398.7 708.931 1399.97 712.535 1400.38 714.438C1400.79 716.341 1400.53 718.343 1400.27 720.282C1399.92 722.829 1396.47 725.375 1396.12 727.921C1399.96 729.155 1404.07 725.23 1405.59 718.403C1405.44 714.087 1407.96 709.919 1405.31 706.886Z" fill="#2F2E41"/>
<circle cx="1264.5" cy="732.5" r="224.5" stroke="#C99CF5" stroke-width="50"/>
<circle cx="1325.5" cy="244.5" r="28.5" fill="#F5C29C"/>
<circle cx="1325.5" cy="244.5" r="28.5" stroke="#F5C29C"/>
<circle cx="1405.5" cy="244.5" r="28.5" fill="#BEF59C"/>
<circle cx="1405.5" cy="244.5" r="28.5" stroke="#C99CF5"/>
<circle cx="1485.5" cy="244.5" r="28.5" fill="#EE9CF5"/>
<circle cx="1485.5" cy="244.5" r="28.5" stroke="#F5C29C"/>
<circle cx="1565.5" cy="244.5" r="28.5" fill="#C99CF5"/>
<path d="M1572.24 794.62V796.2H1575.66C1578.74 796.2 1581.96 797.68 1583.4 800.14L1584.62 799.12C1583.52 797.34 1581.5 796.04 1579.12 795.4C1581.3 794.76 1583.2 793.56 1584.24 791.86L1582.96 790.92C1581.52 793.28 1578.48 794.62 1575.6 794.62H1572.24ZM1576.98 789.9V792.86H1578.34V789.9H1587.6V788.36H1570.94V789.9H1576.98ZM1570.54 786.26H1588.48V784.7H1570.54V786.26ZM1578.98 771.182C1578.1 773.762 1575.86 775.522 1573.44 775.522H1571.46V777.162H1573.3C1576.04 777.162 1578.48 778.902 1579.46 781.622L1580.76 780.762C1579.96 778.662 1578.32 777.062 1576.22 776.322C1578.06 775.522 1579.54 773.982 1580.26 772.042L1578.98 771.182ZM1587.18 773.322C1587.18 775.982 1586.44 777.602 1585.2 777.602C1583.94 777.602 1583.2 775.982 1583.2 773.322C1583.2 770.682 1583.94 769.062 1585.2 769.062C1586.44 769.062 1587.18 770.682 1587.18 773.322ZM1581.92 773.322C1581.92 776.982 1583.1 779.242 1585.2 779.242C1587.28 779.242 1588.46 776.982 1588.46 773.322C1588.46 769.682 1587.28 767.422 1585.2 767.422C1583.1 767.422 1581.92 769.682 1581.92 773.322ZM1575.18 767.622H1570.56V769.262H1581.42V767.622H1576.54V764.962H1575.18V767.622ZM1583.02 759.083C1583.02 760.523 1581.2 761.423 1578.26 761.423C1575.38 761.423 1573.56 760.523 1573.56 759.083C1573.56 757.683 1575.38 756.763 1578.26 756.763C1581.2 756.763 1583.02 757.683 1583.02 759.083ZM1577.52 753.023V755.283C1574.14 755.483 1572.04 756.923 1572.04 759.083C1572.04 761.423 1574.44 762.923 1578.26 762.923C1582.14 762.923 1584.54 761.423 1584.54 759.083C1584.54 756.883 1582.38 755.423 1578.86 755.283V753.023H1587.6V751.463H1570.94V753.023H1577.52ZM1570.54 749.463H1588.48V747.903H1570.54V749.463ZM1584.86 731.02H1580.26V725.56H1578.94V736.26H1573.32V725.74H1571.98V737.9H1580.26V732.68H1584.86V739.98H1586.22V723.68H1584.86V731.02ZM1572.16 713.441C1572.16 710.621 1572.94 708.841 1574.26 708.841C1575.56 708.841 1576.34 710.621 1576.34 713.441C1576.34 716.301 1575.56 718.081 1574.26 718.081C1572.94 718.081 1572.16 716.301 1572.16 713.441ZM1577.6 713.441C1577.6 709.581 1576.38 707.161 1574.26 707.161C1572.12 707.161 1570.88 709.581 1570.88 713.441C1570.88 717.341 1572.12 719.761 1574.26 719.761C1576.38 719.761 1577.6 717.341 1577.6 713.441ZM1586.92 708.921V717.961H1583.64V708.921H1586.92ZM1580.3 705.341H1578.98V721.561H1580.3V714.261H1582.34V719.561H1588.24V707.321H1582.34V712.621H1580.3V705.341ZM1570.54 690.123H1588.52V688.483H1570.54V690.123ZM1571.92 697.943C1571.92 700.603 1574.36 702.503 1578.18 702.503C1582 702.503 1584.44 700.603 1584.44 697.943C1584.44 695.283 1582 693.383 1578.18 693.383C1574.36 693.383 1571.92 695.283 1571.92 697.943ZM1573.4 697.943C1573.4 696.203 1575.28 694.963 1578.18 694.963C1581.1 694.963 1582.98 696.203 1582.98 697.943C1582.98 699.703 1581.1 700.943 1578.18 700.943C1575.28 700.943 1573.4 699.703 1573.4 697.943ZM1579.62 673.239V669.379H1578.28V676.919H1573.58V669.459H1572.22V678.539H1579.62V674.879H1583.18C1583.24 676.619 1583.24 678.319 1583.24 679.859L1584.62 679.659C1584.62 676.259 1584.54 671.959 1583.94 668.039L1582.74 668.179C1582.94 669.779 1583.04 671.519 1583.12 673.239H1579.62ZM1570.52 666.999H1588.52V665.359H1570.52V666.999ZM1572.48 660.521H1573.8V653.781C1578.06 654.121 1581.5 656.521 1583.8 661.341L1585.14 660.461C1582.22 654.501 1577.66 652.121 1572.48 652.121V660.521ZM1570.54 648.501H1588.48V646.861H1570.54V648.501ZM1572.74 632.517C1572.74 630.777 1573.68 629.537 1575.08 629.537C1576.48 629.537 1577.42 630.777 1577.42 632.517C1577.42 634.277 1576.48 635.517 1575.08 635.517C1573.68 635.517 1572.74 634.277 1572.74 632.517ZM1578.76 632.517C1578.76 629.857 1577.26 627.957 1575.08 627.957C1572.88 627.957 1571.38 629.857 1571.38 632.517C1571.38 635.197 1572.88 637.097 1575.08 637.097C1577.26 637.097 1578.76 635.197 1578.76 632.517ZM1579.64 626.617C1580.24 630.557 1580.28 635.097 1580.28 638.437L1581.66 638.217C1581.66 636.737 1581.64 635.037 1581.56 633.257H1587.92V631.617H1581.46C1581.36 629.917 1581.16 628.177 1580.86 626.477L1579.64 626.617ZM1570.56 625.317H1588.5V623.677H1570.56V625.317ZM1582.96 615.559C1582.96 616.959 1581.82 617.939 1580.22 617.939C1578.66 617.939 1577.52 616.959 1577.52 615.559C1577.52 614.179 1578.66 613.179 1580.22 613.179C1581.82 613.179 1582.96 614.179 1582.96 615.559ZM1576.14 615.559C1576.14 617.779 1577.82 619.399 1580.22 619.399C1582.66 619.399 1584.32 617.779 1584.32 615.559C1584.32 613.339 1582.66 611.719 1580.22 611.719C1577.82 611.719 1576.14 613.339 1576.14 615.559ZM1571.06 614.759V616.379H1573.6V620.019H1574.94V611.119H1573.6V614.759H1571.06ZM1570.52 606.379H1578.1V608.679H1570.94V610.219H1587.6V608.679H1579.44V606.379H1588.46V604.799H1570.52V606.379ZM1572.08 595.32V596.96H1575.3C1578.62 596.96 1582.08 599 1583.38 601.6L1584.68 600.6C1583.6 598.58 1581.34 596.92 1578.68 596.14C1581.2 595.32 1583.34 593.68 1584.36 591.64L1583.06 590.68C1581.82 593.28 1578.56 595.32 1575.3 595.32H1572.08ZM1570.54 588.46H1576.62V592.62H1577.96V588.46H1588.5V586.82H1570.54V588.46ZM1575.24 576.577C1573.62 576.577 1572.5 575.297 1572.5 573.517C1572.5 571.757 1573.62 570.477 1575.24 570.477C1576.84 570.477 1577.98 571.757 1577.98 573.517C1577.98 575.297 1576.84 576.577 1575.24 576.577ZM1574 565.297H1576.4V569.077C1576.04 568.977 1575.64 568.917 1575.24 568.917C1574.8 568.917 1574.38 568.977 1574 569.097V565.297ZM1577.7 565.297H1579.74V563.657H1570.54V565.297H1572.7V569.817C1571.74 570.637 1571.16 571.957 1571.16 573.517C1571.16 576.197 1572.82 578.137 1575.24 578.137C1577.62 578.137 1579.3 576.197 1579.3 573.517C1579.32 571.917 1578.7 570.597 1577.7 569.757V565.297ZM1586.94 573.557H1584.98V563.657H1580.66V575.217H1581.96V565.277H1583.74V575.177H1588.24V562.977H1586.94V573.557ZM1578.66 549.158C1577.78 551.818 1575.54 553.698 1573 553.698H1571.26V555.338H1573C1575.64 555.338 1578.04 557.178 1579.02 559.898L1580.3 559.058C1579.52 556.938 1577.86 555.278 1575.78 554.498C1577.72 553.678 1579.24 552.038 1579.96 549.978L1578.66 549.158ZM1583.08 555.298V546.898H1586.92V555.298H1583.08ZM1588.24 556.898V545.298H1581.78V556.898H1588.24ZM1570.56 546.938H1580.76V545.298H1570.56V546.938ZM1583.12 535.82C1583.12 537.48 1581.96 538.68 1580.34 538.68C1578.74 538.68 1577.58 537.48 1577.58 535.82C1577.58 534.16 1578.74 532.94 1580.34 532.94C1581.96 532.94 1583.12 534.16 1583.12 535.82ZM1576.22 535.82C1576.22 538.38 1577.92 540.24 1580.34 540.24C1582.8 540.24 1584.48 538.38 1584.48 535.82C1584.48 533.22 1582.8 531.38 1580.34 531.38C1577.92 531.38 1576.22 533.22 1576.22 535.82ZM1570.72 535.02V536.66H1573.44V541.22H1574.78V530.46H1573.44V535.02H1570.72ZM1570.54 528.58H1588.48V526.94H1570.54V528.58ZM1572.98 505.896C1574.38 505.896 1575.7 505.896 1577.54 506.376L1577.72 504.776C1575.88 504.276 1574.42 504.276 1572.98 504.276H1571.46V516.496H1572.78V505.896H1572.98ZM1587.18 510.396C1587.18 513.196 1586.42 514.996 1585.18 514.996C1583.9 514.996 1583.14 513.196 1583.14 510.396C1583.14 507.576 1583.9 505.776 1585.18 505.776C1586.42 505.776 1587.18 507.576 1587.18 510.396ZM1581.88 510.396C1581.88 514.216 1583.1 516.636 1585.18 516.636C1587.22 516.636 1588.46 514.216 1588.46 510.396C1588.46 506.576 1587.22 504.136 1585.18 504.136C1583.1 504.136 1581.88 506.576 1581.88 510.396ZM1578.9 510.136H1575.46V511.776H1578.9V518.396H1580.22V502.256H1578.9V510.136ZM1577.68 487.478V496.378H1575.04V487.478H1577.68ZM1571.26 485.838V487.478H1573.72V496.378H1571.26V497.998H1579.02V485.838H1571.26ZM1581.18 483.778V500.058H1582.5V492.778H1588.5V491.138H1582.5V483.778H1581.18ZM1577.86 480.139C1577.5 477.199 1576.18 474.499 1574.2 473.519C1576.18 472.519 1577.5 469.839 1577.86 466.899L1576.56 466.319C1576.2 469.459 1574.66 472.319 1572.68 472.459V466.879H1571.36V480.139H1572.68V474.579C1574.66 474.719 1576.2 477.579 1576.56 480.719L1577.86 480.139ZM1585.3 469.059C1586.5 469.059 1587.2 470.739 1587.2 473.539C1587.2 476.359 1586.5 478.019 1585.3 478.019C1584.1 478.019 1583.42 476.359 1583.42 473.539C1583.42 470.739 1584.1 469.059 1585.3 469.059ZM1580.26 465.419H1578.94V481.639H1580.26V474.359H1582.18C1582.34 477.699 1583.44 479.679 1585.3 479.679C1587.34 479.679 1588.46 477.359 1588.46 473.519C1588.46 469.699 1587.34 467.399 1585.3 467.399C1583.44 467.399 1582.34 469.359 1582.18 472.699H1580.26V465.419ZM1570.56 448.521V450.161H1583.66V448.521H1570.56ZM1576.2 461.221C1574.46 461.221 1573.22 459.901 1573.22 458.161C1573.22 456.381 1574.46 455.061 1576.2 455.061C1577.98 455.061 1579.22 456.381 1579.22 458.161C1579.22 459.901 1577.98 461.221 1576.2 461.221ZM1576.2 453.461C1573.62 453.461 1571.8 455.481 1571.8 458.161C1571.8 460.821 1573.62 462.821 1576.2 462.821C1578.8 462.821 1580.64 460.821 1580.64 458.161C1580.64 455.481 1578.8 453.461 1576.2 453.461ZM1586.74 458.421H1582.32V460.061H1588.08V447.981H1586.74V458.421ZM1572.86 439.377H1574.2V433.997C1577.92 434.237 1581.16 435.937 1583.46 440.057L1584.64 439.097C1581.76 433.997 1577.48 432.377 1572.86 432.377V439.377ZM1570.54 426.417H1577.76V428.857H1571.02V430.397H1587.58V428.857H1579.1V426.417H1588.48V424.837H1570.54V426.417ZM1577.8 414.219V419.299H1575.12V414.219H1577.8ZM1571.28 412.619V414.219H1573.86V419.299H1571.28V420.919H1579.12V412.619H1571.28ZM1585.02 417.479V407.739H1580.66V419.139H1581.96V409.359H1583.8V419.079H1588.28V407.079H1586.98V417.479H1585.02ZM1574.4 407.739H1570.56V409.379H1579.82V407.739H1575.76V405.079H1574.4V407.739ZM1573.74 397.22V393.24H1572.38V402.94H1573.74V398.84H1576.02C1579.06 398.84 1582.46 401 1583.74 403.56L1585.04 402.6C1584 400.58 1581.72 398.84 1579.1 398.02C1581.5 397.2 1583.6 395.52 1584.6 393.52L1583.28 392.58C1582.06 395.18 1578.88 397.22 1576.02 397.22H1573.74ZM1577.78 386.5V389.46H1570.56V391.1H1588.48V389.46H1579.16V386.5H1577.78ZM1570.56 371.782H1580.18V370.142H1570.56V371.782ZM1581.06 381.702H1588.24V370.142H1581.06V371.762H1583.26V380.082H1581.06V381.702ZM1584.54 380.082V371.762H1586.92V380.082H1584.54ZM1571.4 379.782C1571.4 382.482 1573.08 384.442 1575.52 384.442C1578 384.442 1579.66 382.482 1579.66 379.782C1579.66 377.062 1578 375.082 1575.52 375.082C1573.08 375.082 1571.4 377.062 1571.4 379.782ZM1572.76 379.782C1572.76 377.962 1573.9 376.682 1575.52 376.682C1577.16 376.682 1578.3 377.962 1578.3 379.782C1578.3 381.562 1577.16 382.842 1575.52 382.842C1573.9 382.842 1572.76 381.562 1572.76 379.782ZM1572.28 363.703V365.343H1583.84V363.863C1583.84 361.003 1583.64 358.183 1583 355.063L1581.6 355.243C1582.2 358.223 1582.44 361.003 1582.44 363.703H1572.28ZM1570.54 353.403H1588.46V351.763H1570.54V353.403ZM1573.62 345.665V338.965H1572.26V347.305H1584.04V345.885C1584.04 342.505 1583.92 340.145 1583.4 337.405L1582.04 337.585C1582.5 340.185 1582.64 342.485 1582.64 345.665H1573.62ZM1577.62 331.305V334.265H1570.54V335.905H1588.52V334.265H1578.98V331.305H1577.62ZM1586.52 329.291C1586.37 329.291 1586.24 329.239 1586.14 329.135C1586.03 329.031 1585.97 328.904 1585.97 328.754C1585.97 328.604 1586.03 328.477 1586.14 328.373C1586.24 328.262 1586.37 328.207 1586.52 328.207C1586.67 328.207 1586.8 328.262 1586.9 328.373C1587.01 328.477 1587.06 328.604 1587.06 328.754C1587.06 328.904 1587.01 329.031 1586.9 329.135C1586.8 329.239 1586.67 329.291 1586.52 329.291Z" fill="#C99CF5"/>
<rect x="746" y="185" width="136" height="61" fill="#C99CF5" stroke="#C99CF5" stroke-width="10"/>
<path d="M319 185H553V246H319V185Z" fill="#C99CF5" stroke="#C99CF5" stroke-width="10"/>
<rect x="1579" y="825" width="5" height="209" fill="#C99CF5"/>
<rect x="754" y="1034" width="5" height="828" transform="rotate(-90 754 1034)" fill="#C99CF5"/>
<path d="M751.35 680H747.45V572.9H805.35V576.65H751.35V626.9H802.5V630.65H751.35V680ZM883.078 640.4C883.078 648.1 881.828 655.1 879.328 661.4C876.928 667.6 873.178 672.5 868.078 676.1C863.078 679.7 856.628 681.5 848.728 681.5C841.128 681.5 834.778 679.7 829.678 676.1C824.678 672.5 820.928 667.6 818.428 661.4C815.928 655.2 814.678 648.2 814.678 640.4C814.678 627.8 817.728 617.8 823.828 610.4C830.028 603 838.628 599.3 849.628 599.3C857.628 599.3 864.078 601.15 868.978 604.85C873.878 608.45 877.428 613.35 879.628 619.55C881.928 625.75 883.078 632.7 883.078 640.4ZM818.728 640.4C818.728 647.7 819.828 654.2 822.028 659.9C824.228 665.5 827.528 669.9 831.928 673.1C836.428 676.2 842.028 677.75 848.728 677.75C855.728 677.75 861.428 676.15 865.828 672.95C870.328 669.75 873.628 665.35 875.728 659.75C877.928 654.05 879.028 647.6 879.028 640.4C879.028 633.5 878.028 627.25 876.028 621.65C874.128 615.95 871.028 611.45 866.728 608.15C862.428 604.75 856.728 603.05 849.628 603.05C839.728 603.05 832.078 606.35 826.678 612.95C821.378 619.55 818.728 628.7 818.728 640.4ZM909.657 680H905.757V566H909.657V680ZM938.612 571.85C940.412 571.85 941.512 572.35 941.912 573.35C942.412 574.25 942.662 575.3 942.662 576.5C942.662 577.8 942.412 578.9 941.912 579.8C941.512 580.7 940.412 581.15 938.612 581.15C937.112 581.15 936.112 580.7 935.612 579.8C935.112 578.9 934.862 577.8 934.862 576.5C934.862 575.3 935.112 574.25 935.612 573.35C936.112 572.35 937.112 571.85 938.612 571.85ZM940.562 600.8V680H936.662V600.8H940.562ZM1031.47 640.4C1031.47 648.1 1030.22 655.1 1027.72 661.4C1025.32 667.6 1021.57 672.5 1016.47 676.1C1011.47 679.7 1005.02 681.5 997.117 681.5C989.517 681.5 983.167 679.7 978.067 676.1C973.067 672.5 969.317 667.6 966.817 661.4C964.317 655.2 963.067 648.2 963.067 640.4C963.067 627.8 966.117 617.8 972.217 610.4C978.417 603 987.017 599.3 998.017 599.3C1006.02 599.3 1012.47 601.15 1017.37 604.85C1022.27 608.45 1025.82 613.35 1028.02 619.55C1030.32 625.75 1031.47 632.7 1031.47 640.4ZM967.117 640.4C967.117 647.7 968.217 654.2 970.417 659.9C972.617 665.5 975.917 669.9 980.317 673.1C984.817 676.2 990.417 677.75 997.117 677.75C1004.12 677.75 1009.82 676.15 1014.22 672.95C1018.72 669.75 1022.02 665.35 1024.12 659.75C1026.32 654.05 1027.42 647.6 1027.42 640.4C1027.42 633.5 1026.42 627.25 1024.42 621.65C1022.52 615.95 1019.42 611.45 1015.12 608.15C1010.82 604.75 1005.12 603.05 998.017 603.05C988.117 603.05 980.467 606.35 975.067 612.95C969.767 619.55 967.117 628.7 967.117 640.4Z" fill="#2C2828"/>
<rect width="1920" height="70" fill="#2C2C2C"/>
<path d="M318.945 41.6055H311.24L309.775 46H305.103L313.042 24.6719H317.114L325.098 46H320.425L318.945 41.6055ZM312.427 38.0459H317.759L315.078 30.0625L312.427 38.0459ZM330.942 31.8789C332.065 30.5312 333.477 29.8574 335.176 29.8574C338.613 29.8574 340.356 31.8545 340.405 35.8486V46H336.172V35.9658C336.172 35.0576 335.977 34.3887 335.586 33.959C335.195 33.5195 334.546 33.2998 333.638 33.2998C332.397 33.2998 331.499 33.7783 330.942 34.7354V46H326.709V23.5H330.942V31.8789ZM347.495 30.1504L347.627 31.9814C348.76 30.5654 350.278 29.8574 352.183 29.8574C353.862 29.8574 355.112 30.3506 355.933 31.3369C356.753 32.3232 357.173 33.7979 357.192 35.7607V46H352.959V35.8633C352.959 34.9648 352.764 34.3154 352.373 33.915C351.982 33.5049 351.333 33.2998 350.425 33.2998C349.233 33.2998 348.34 33.8076 347.744 34.8232V46H343.511V30.1504H347.495ZM375.518 34.2812L379.956 24.6719H384.761L377.759 38.2656V46H373.291V38.2656L366.289 24.6719H371.108L375.518 34.2812ZM384.805 37.9287C384.805 36.3564 385.107 34.9551 385.713 33.7246C386.318 32.4941 387.188 31.542 388.32 30.8682C389.463 30.1943 390.786 29.8574 392.29 29.8574C394.429 29.8574 396.172 30.5117 397.52 31.8203C398.877 33.1289 399.634 34.9062 399.79 37.1523L399.819 38.2363C399.819 40.668 399.141 42.6211 397.783 44.0957C396.426 45.5605 394.604 46.293 392.319 46.293C390.034 46.293 388.208 45.5605 386.841 44.0957C385.483 42.6309 384.805 40.6387 384.805 38.1191V37.9287ZM389.038 38.2363C389.038 39.7402 389.321 40.8926 389.888 41.6934C390.454 42.4844 391.265 42.8799 392.319 42.8799C393.345 42.8799 394.146 42.4893 394.722 41.708C395.298 40.917 395.586 39.6572 395.586 37.9287C395.586 36.4541 395.298 35.3115 394.722 34.501C394.146 33.6904 393.335 33.2852 392.29 33.2852C391.255 33.2852 390.454 33.6904 389.888 34.501C389.321 35.3018 389.038 36.5469 389.038 38.2363ZM411.919 44.3887C410.874 45.6582 409.429 46.293 407.583 46.293C405.884 46.293 404.585 45.8047 403.687 44.8281C402.798 43.8516 402.344 42.4209 402.324 40.5361V30.1504H406.558V40.3896C406.558 42.04 407.31 42.8652 408.813 42.8652C410.249 42.8652 411.235 42.3672 411.772 41.3711V30.1504H416.021V46H412.036L411.919 44.3887ZM423.11 30.1504L423.242 31.9814C424.375 30.5654 425.894 29.8574 427.798 29.8574C429.478 29.8574 430.728 30.3506 431.548 31.3369C432.368 32.3232 432.788 33.7979 432.808 35.7607V46H428.574V35.8633C428.574 34.9648 428.379 34.3154 427.988 33.915C427.598 33.5049 426.948 33.2998 426.04 33.2998C424.849 33.2998 423.955 33.8076 423.359 34.8232V46H419.126V30.1504H423.11ZM435.415 37.958C435.415 35.5264 435.991 33.5684 437.144 32.084C438.306 30.5996 439.868 29.8574 441.831 29.8574C443.569 29.8574 444.922 30.4531 445.889 31.6445L446.064 30.1504H449.902V45.4727C449.902 46.8594 449.585 48.0654 448.95 49.0908C448.325 50.1162 447.441 50.8975 446.299 51.4346C445.156 51.9717 443.818 52.2402 442.285 52.2402C441.123 52.2402 439.99 52.0059 438.887 51.5371C437.783 51.0781 436.948 50.4824 436.382 49.75L438.257 47.1719C439.312 48.3535 440.591 48.9443 442.095 48.9443C443.218 48.9443 444.092 48.6416 444.717 48.0361C445.342 47.4404 445.654 46.5908 445.654 45.4873V44.6377C444.678 45.7412 443.394 46.293 441.802 46.293C439.897 46.293 438.354 45.5508 437.173 44.0664C436.001 42.5723 435.415 40.5947 435.415 38.1338V37.958ZM439.648 38.2656C439.648 39.7012 439.937 40.8291 440.513 41.6494C441.089 42.46 441.88 42.8652 442.886 42.8652C444.175 42.8652 445.098 42.3818 445.654 41.415V34.75C445.088 33.7832 444.175 33.2998 442.915 33.2998C441.899 33.2998 441.099 33.7148 440.513 34.5449C439.937 35.375 439.648 36.6152 439.648 38.2656ZM469.517 24.6719H473.911V39.4375C473.911 40.7949 473.608 41.9961 473.003 43.041C472.407 44.0762 471.562 44.877 470.469 45.4434C469.375 46.0098 468.14 46.293 466.763 46.293C464.507 46.293 462.749 45.7217 461.489 44.5791C460.229 43.4268 459.6 41.8008 459.6 39.7012H464.023C464.023 40.7461 464.243 41.5176 464.683 42.0156C465.122 42.5137 465.815 42.7627 466.763 42.7627C467.603 42.7627 468.271 42.4746 468.77 41.8984C469.268 41.3223 469.517 40.502 469.517 39.4375V24.6719ZM486.89 44.3887C485.845 45.6582 484.399 46.293 482.554 46.293C480.854 46.293 479.556 45.8047 478.657 44.8281C477.769 43.8516 477.314 42.4209 477.295 40.5361V30.1504H481.528V40.3896C481.528 42.04 482.28 42.8652 483.784 42.8652C485.22 42.8652 486.206 42.3672 486.743 41.3711V30.1504H490.991V46H487.007L486.89 44.3887ZM498.081 30.1504L498.213 31.9814C499.346 30.5654 500.864 29.8574 502.769 29.8574C504.448 29.8574 505.698 30.3506 506.519 31.3369C507.339 32.3232 507.759 33.7979 507.778 35.7607V46H503.545V35.8633C503.545 34.9648 503.35 34.3154 502.959 33.915C502.568 33.5049 501.919 33.2998 501.011 33.2998C499.819 33.2998 498.926 33.8076 498.33 34.8232V46H494.097V30.1504H498.081Z" fill="white"/>
<path d="M1208.84 41H1205.91V34.9062H1200.2V41H1197.27V26.7812H1200.2V32.543H1205.91V26.7812H1208.84V41ZM1210.79 35.6191C1210.79 34.571 1210.99 33.6367 1211.39 32.8164C1211.79 31.9961 1212.37 31.3613 1213.13 30.9121C1213.89 30.4629 1214.77 30.2383 1215.78 30.2383C1217.2 30.2383 1218.36 30.6745 1219.26 31.5469C1220.17 32.4193 1220.67 33.6042 1220.78 35.1016L1220.79 35.8242C1220.79 37.4453 1220.34 38.7474 1219.44 39.7305C1218.53 40.707 1217.32 41.1953 1215.79 41.1953C1214.27 41.1953 1213.05 40.707 1212.14 39.7305C1211.24 38.7539 1210.79 37.4258 1210.79 35.7461V35.6191ZM1213.61 35.8242C1213.61 36.8268 1213.8 37.5951 1214.17 38.1289C1214.55 38.6562 1215.09 38.9199 1215.79 38.9199C1216.48 38.9199 1217.01 38.6595 1217.4 38.1387C1217.78 37.6113 1217.97 36.7715 1217.97 35.6191C1217.97 34.6361 1217.78 33.8743 1217.4 33.334C1217.01 32.7936 1216.47 32.5234 1215.78 32.5234C1215.09 32.5234 1214.55 32.7936 1214.17 33.334C1213.8 33.8678 1213.61 34.6979 1213.61 35.8242ZM1225.18 30.4336L1225.27 31.6152C1226.02 30.6973 1227.03 30.2383 1228.3 30.2383C1229.67 30.2383 1230.6 30.7754 1231.11 31.8496C1231.85 30.7754 1232.91 30.2383 1234.28 30.2383C1235.43 30.2383 1236.28 30.5736 1236.84 31.2441C1237.4 31.9082 1237.68 32.9108 1237.68 34.252V41H1234.85V34.2617C1234.85 33.6628 1234.73 33.2266 1234.5 32.9531C1234.26 32.6732 1233.85 32.5332 1233.26 32.5332C1232.41 32.5332 1231.82 32.9368 1231.5 33.7441L1231.51 41H1228.69V34.2715C1228.69 33.6595 1228.57 33.2168 1228.32 32.9434C1228.08 32.6699 1227.67 32.5332 1227.09 32.5332C1226.29 32.5332 1225.71 32.8652 1225.36 33.5293V41H1222.53V30.4336H1225.18ZM1244.72 41.1953C1243.17 41.1953 1241.91 40.7201 1240.93 39.7695C1239.96 38.819 1239.48 37.5527 1239.48 35.9707V35.6973C1239.48 34.6361 1239.68 33.6888 1240.09 32.8555C1240.5 32.0156 1241.08 31.3711 1241.83 30.9219C1242.59 30.4661 1243.44 30.2383 1244.41 30.2383C1245.85 30.2383 1246.99 30.694 1247.82 31.6055C1248.65 32.5169 1249.07 33.8092 1249.07 35.4824V36.6348H1242.34C1242.43 37.3249 1242.7 37.8783 1243.16 38.2949C1243.62 38.7116 1244.2 38.9199 1244.91 38.9199C1245.99 38.9199 1246.84 38.526 1247.46 37.7383L1248.84 39.291C1248.42 39.89 1247.85 40.3587 1247.12 40.6973C1246.4 41.0293 1245.6 41.1953 1244.72 41.1953ZM1244.4 32.5234C1243.84 32.5234 1243.38 32.7122 1243.03 33.0898C1242.69 33.4674 1242.46 34.0078 1242.37 34.7109H1246.29V34.4863C1246.28 33.8613 1246.11 33.3796 1245.79 33.041C1245.46 32.696 1245 32.5234 1244.4 32.5234Z" fill="white"/>
<path d="M1314.3 38.0703H1309.16L1308.18 41H1305.07L1310.36 26.7812H1313.08L1318.4 41H1315.28L1314.3 38.0703ZM1309.95 35.6973H1313.51L1311.72 30.375L1309.95 35.6973ZM1329.06 35.8145C1329.06 37.5072 1328.7 38.8288 1327.98 39.7793C1327.26 40.7233 1326.25 41.1953 1324.95 41.1953C1323.81 41.1953 1322.89 40.7559 1322.21 39.877L1322.08 41H1319.54V26H1322.36V31.3809C1323.01 30.6191 1323.87 30.2383 1324.93 30.2383C1326.22 30.2383 1327.23 30.7135 1327.96 31.6641C1328.69 32.6081 1329.06 33.9395 1329.06 35.6582V35.8145ZM1326.24 35.6094C1326.24 34.5417 1326.07 33.7637 1325.73 33.2754C1325.39 32.7806 1324.89 32.5332 1324.22 32.5332C1323.32 32.5332 1322.7 32.901 1322.36 33.6367V37.8066C1322.71 38.5488 1323.33 38.9199 1324.24 38.9199C1325.15 38.9199 1325.75 38.4707 1326.04 37.5723C1326.17 37.1426 1326.24 36.4883 1326.24 35.6094ZM1330.37 35.6191C1330.37 34.571 1330.57 33.6367 1330.98 32.8164C1331.38 31.9961 1331.96 31.3613 1332.71 30.9121C1333.48 30.4629 1334.36 30.2383 1335.36 30.2383C1336.79 30.2383 1337.95 30.6745 1338.85 31.5469C1339.75 32.4193 1340.26 33.6042 1340.36 35.1016L1340.38 35.8242C1340.38 37.4453 1339.93 38.7474 1339.02 39.7305C1338.12 40.707 1336.9 41.1953 1335.38 41.1953C1333.86 41.1953 1332.64 40.707 1331.73 39.7305C1330.82 38.7539 1330.37 37.4258 1330.37 35.7461V35.6191ZM1333.19 35.8242C1333.19 36.8268 1333.38 37.5951 1333.76 38.1289C1334.14 38.6562 1334.68 38.9199 1335.38 38.9199C1336.06 38.9199 1336.6 38.6595 1336.98 38.1387C1337.37 37.6113 1337.56 36.7715 1337.56 35.6191C1337.56 34.6361 1337.37 33.8743 1336.98 33.334C1336.6 32.7936 1336.06 32.5234 1335.36 32.5234C1334.67 32.5234 1334.14 32.7936 1333.76 33.334C1333.38 33.8678 1333.19 34.6979 1333.19 35.8242ZM1348.45 39.9258C1347.75 40.7721 1346.79 41.1953 1345.56 41.1953C1344.42 41.1953 1343.56 40.8698 1342.96 40.2188C1342.37 39.5677 1342.06 38.6139 1342.05 37.3574V30.4336H1344.87V37.2598C1344.87 38.36 1345.37 38.9102 1346.38 38.9102C1347.33 38.9102 1347.99 38.5781 1348.35 37.9141V30.4336H1351.18V41H1348.53L1348.45 39.9258ZM1356.69 27.8359V30.4336H1358.5V32.5039H1356.69V37.7773C1356.69 38.168 1356.76 38.4479 1356.91 38.6172C1357.06 38.7865 1357.35 38.8711 1357.77 38.8711C1358.09 38.8711 1358.36 38.8483 1358.6 38.8027V40.9414C1358.05 41.1107 1357.48 41.1953 1356.89 41.1953C1354.92 41.1953 1353.91 40.196 1353.87 38.1973V32.5039H1352.32V30.4336H1353.87V27.8359H1356.69Z" fill="white"/>
<path d="M1546.43 36.2637C1546.32 37.7936 1545.75 38.998 1544.73 39.877C1543.72 40.7559 1542.38 41.1953 1540.71 41.1953C1538.89 41.1953 1537.45 40.5833 1536.4 39.3594C1535.36 38.1289 1534.84 36.4427 1534.84 34.3008V33.4316C1534.84 32.0645 1535.08 30.86 1535.56 29.8184C1536.04 28.7767 1536.73 27.9792 1537.62 27.4258C1538.52 26.8659 1539.56 26.5859 1540.75 26.5859C1542.39 26.5859 1543.71 27.0254 1544.71 27.9043C1545.72 28.7832 1546.29 30.0169 1546.45 31.6055H1543.52C1543.45 30.6875 1543.19 30.0234 1542.75 29.6133C1542.31 29.1966 1541.65 28.9883 1540.75 28.9883C1539.77 28.9883 1539.04 29.3398 1538.55 30.043C1538.07 30.7396 1537.82 31.8236 1537.81 33.2949V34.3691C1537.81 35.9056 1538.04 37.0286 1538.5 37.7383C1538.97 38.4479 1539.71 38.8027 1540.71 38.8027C1541.61 38.8027 1542.29 38.5977 1542.73 38.1875C1543.18 37.7708 1543.44 37.1296 1543.5 36.2637H1546.43ZM1547.73 35.6191C1547.73 34.571 1547.93 33.6367 1548.34 32.8164C1548.74 31.9961 1549.32 31.3613 1550.07 30.9121C1550.84 30.4629 1551.72 30.2383 1552.72 30.2383C1554.15 30.2383 1555.31 30.6745 1556.21 31.5469C1557.11 32.4193 1557.62 33.6042 1557.72 35.1016L1557.74 35.8242C1557.74 37.4453 1557.29 38.7474 1556.38 39.7305C1555.48 40.707 1554.26 41.1953 1552.74 41.1953C1551.22 41.1953 1550 40.707 1549.09 39.7305C1548.18 38.7539 1547.73 37.4258 1547.73 35.7461V35.6191ZM1550.55 35.8242C1550.55 36.8268 1550.74 37.5951 1551.12 38.1289C1551.5 38.6562 1552.04 38.9199 1552.74 38.9199C1553.42 38.9199 1553.96 38.6595 1554.34 38.1387C1554.73 37.6113 1554.92 36.7715 1554.92 35.6191C1554.92 34.6361 1554.73 33.8743 1554.34 33.334C1553.96 32.7936 1553.42 32.5234 1552.72 32.5234C1552.03 32.5234 1551.5 32.7936 1551.12 33.334C1550.74 33.8678 1550.55 34.6979 1550.55 35.8242ZM1562.08 30.4336L1562.16 31.6543C1562.92 30.7103 1563.93 30.2383 1565.2 30.2383C1566.32 30.2383 1567.15 30.5671 1567.7 31.2246C1568.25 31.8822 1568.53 32.8652 1568.54 34.1738V41H1565.72V34.2422C1565.72 33.6432 1565.59 33.2103 1565.33 32.9434C1565.07 32.6699 1564.63 32.5332 1564.03 32.5332C1563.24 32.5332 1562.64 32.8717 1562.24 33.5488V41H1559.42V30.4336H1562.08ZM1574.07 27.8359V30.4336H1575.88V32.5039H1574.07V37.7773C1574.07 38.168 1574.14 38.4479 1574.29 38.6172C1574.44 38.7865 1574.73 38.8711 1575.15 38.8711C1575.46 38.8711 1575.74 38.8483 1575.98 38.8027V40.9414C1575.43 41.1107 1574.86 41.1953 1574.27 41.1953C1572.29 41.1953 1571.29 40.196 1571.25 38.1973V32.5039H1569.7V30.4336H1571.25V27.8359H1574.07ZM1582.31 41.1953C1580.76 41.1953 1579.5 40.7201 1578.52 39.7695C1577.55 38.819 1577.07 37.5527 1577.07 35.9707V35.6973C1577.07 34.6361 1577.27 33.6888 1577.68 32.8555C1578.09 32.0156 1578.67 31.3711 1579.42 30.9219C1580.18 30.4661 1581.03 30.2383 1582 30.2383C1583.44 30.2383 1584.58 30.694 1585.41 31.6055C1586.24 32.5169 1586.66 33.8092 1586.66 35.4824V36.6348H1579.93C1580.02 37.3249 1580.29 37.8783 1580.75 38.2949C1581.21 38.7116 1581.79 38.9199 1582.5 38.9199C1583.58 38.9199 1584.43 38.526 1585.04 37.7383L1586.43 39.291C1586.01 39.89 1585.44 40.3587 1584.71 40.6973C1583.99 41.0293 1583.19 41.1953 1582.31 41.1953ZM1581.99 32.5234C1581.43 32.5234 1580.97 32.7122 1580.62 33.0898C1580.28 33.4674 1580.05 34.0078 1579.96 34.7109H1583.88V34.4863C1583.87 33.8613 1583.7 33.3796 1583.38 33.041C1583.05 32.696 1582.59 32.5234 1581.99 32.5234ZM1592.66 38.9199C1593.18 38.9199 1593.61 38.7767 1593.93 38.4902C1594.26 38.2038 1594.43 37.8229 1594.44 37.3477H1597.09C1597.08 38.0638 1596.88 38.7214 1596.5 39.3203C1596.12 39.9128 1595.59 40.375 1594.92 40.707C1594.25 41.0326 1593.52 41.1953 1592.71 41.1953C1591.2 41.1953 1590.01 40.7168 1589.14 39.7598C1588.26 38.7962 1587.83 37.4681 1587.83 35.7754V35.5898C1587.83 33.9622 1588.26 32.6634 1589.13 31.6934C1589.99 30.7233 1591.18 30.2383 1592.69 30.2383C1594.01 30.2383 1595.07 30.6159 1595.87 31.3711C1596.67 32.1198 1597.07 33.1191 1597.09 34.3691H1594.44C1594.43 33.8223 1594.26 33.3796 1593.93 33.041C1593.61 32.696 1593.18 32.5234 1592.64 32.5234C1591.99 32.5234 1591.49 32.7643 1591.15 33.2461C1590.82 33.7214 1590.65 34.4961 1590.65 35.5703V35.8633C1590.65 36.9505 1590.82 37.7318 1591.15 38.207C1591.48 38.6823 1591.99 38.9199 1592.66 38.9199ZM1602.08 27.8359V30.4336H1603.88V32.5039H1602.08V37.7773C1602.08 38.168 1602.15 38.4479 1602.3 38.6172C1602.45 38.7865 1602.74 38.8711 1603.16 38.8711C1603.47 38.8711 1603.75 38.8483 1603.99 38.8027V40.9414C1603.44 41.1107 1602.87 41.1953 1602.28 41.1953C1600.3 41.1953 1599.29 40.196 1599.25 38.1973V32.5039H1597.71V30.4336H1599.25V27.8359H1602.08Z" fill="white"/>
<path d="M1418.2 35.9902V41H1415.27V26.7812H1420.82C1421.88 26.7812 1422.82 26.9766 1423.63 27.3672C1424.44 27.7578 1425.07 28.3145 1425.5 29.0371C1425.94 29.7533 1426.16 30.5703 1426.16 31.4883C1426.16 32.8815 1425.68 33.9818 1424.72 34.7891C1423.77 35.5898 1422.45 35.9902 1420.77 35.9902H1418.2ZM1418.2 33.6172H1420.82C1421.59 33.6172 1422.18 33.4349 1422.58 33.0703C1422.99 32.7057 1423.2 32.1849 1423.2 31.5078C1423.2 30.8112 1422.99 30.248 1422.58 29.8184C1422.17 29.3887 1421.61 29.1673 1420.88 29.1543H1418.2V33.6172ZM1433.93 33.0801C1433.55 33.028 1433.21 33.002 1432.92 33.002C1431.85 33.002 1431.15 33.3633 1430.82 34.0859V41H1427.99V30.4336H1430.66L1430.74 31.6934C1431.3 30.7233 1432.09 30.2383 1433.09 30.2383C1433.4 30.2383 1433.7 30.2806 1433.97 30.3652L1433.93 33.0801ZM1434.51 35.6191C1434.51 34.571 1434.71 33.6367 1435.11 32.8164C1435.52 31.9961 1436.1 31.3613 1436.85 30.9121C1437.61 30.4629 1438.5 30.2383 1439.5 30.2383C1440.92 30.2383 1442.09 30.6745 1442.98 31.5469C1443.89 32.4193 1444.39 33.6042 1444.5 35.1016L1444.52 35.8242C1444.52 37.4453 1444.07 38.7474 1443.16 39.7305C1442.26 40.707 1441.04 41.1953 1439.52 41.1953C1437.99 41.1953 1436.78 40.707 1435.87 39.7305C1434.96 38.7539 1434.51 37.4258 1434.51 35.7461V35.6191ZM1437.33 35.8242C1437.33 36.8268 1437.52 37.5951 1437.9 38.1289C1438.27 38.6562 1438.81 38.9199 1439.52 38.9199C1440.2 38.9199 1440.74 38.6595 1441.12 38.1387C1441.5 37.6113 1441.7 36.7715 1441.7 35.6191C1441.7 34.6361 1441.5 33.8743 1441.12 33.334C1440.74 32.7936 1440.19 32.5234 1439.5 32.5234C1438.81 32.5234 1438.27 32.7936 1437.9 33.334C1437.52 33.8678 1437.33 34.6979 1437.33 35.8242ZM1449.24 30.4336V41.5762C1449.24 42.7415 1448.93 43.6465 1448.32 44.291C1447.7 44.9421 1446.81 45.2676 1445.64 45.2676C1445.15 45.2676 1444.69 45.2122 1444.24 45.1016V42.8652C1444.58 42.9238 1444.88 42.9531 1445.13 42.9531C1445.99 42.9531 1446.41 42.5007 1446.41 41.5957V30.4336H1449.24ZM1446.19 27.6992C1446.19 27.276 1446.33 26.9277 1446.61 26.6543C1446.89 26.3809 1447.28 26.2441 1447.77 26.2441C1448.26 26.2441 1448.64 26.3809 1448.92 26.6543C1449.21 26.9277 1449.35 27.276 1449.35 27.6992C1449.35 28.1289 1449.21 28.4805 1448.91 28.7539C1448.63 29.0273 1448.24 29.1641 1447.77 29.1641C1447.29 29.1641 1446.91 29.0273 1446.62 28.7539C1446.33 28.4805 1446.19 28.1289 1446.19 27.6992ZM1456.31 41.1953C1454.76 41.1953 1453.5 40.7201 1452.53 39.7695C1451.56 38.819 1451.07 37.5527 1451.07 35.9707V35.6973C1451.07 34.6361 1451.28 33.6888 1451.69 32.8555C1452.1 32.0156 1452.68 31.3711 1453.42 30.9219C1454.18 30.4661 1455.04 30.2383 1456 30.2383C1457.45 30.2383 1458.58 30.694 1459.41 31.6055C1460.24 32.5169 1460.66 33.8092 1460.66 35.4824V36.6348H1453.93C1454.02 37.3249 1454.3 37.8783 1454.75 38.2949C1455.21 38.7116 1455.8 38.9199 1456.5 38.9199C1457.59 38.9199 1458.44 38.526 1459.05 37.7383L1460.44 39.291C1460.01 39.89 1459.44 40.3587 1458.72 40.6973C1457.99 41.0293 1457.19 41.1953 1456.31 41.1953ZM1455.99 32.5234C1455.43 32.5234 1454.98 32.7122 1454.62 33.0898C1454.28 33.4674 1454.06 34.0078 1453.96 34.7109H1457.89V34.4863C1457.87 33.8613 1457.7 33.3796 1457.38 33.041C1457.05 32.696 1456.59 32.5234 1455.99 32.5234ZM1466.67 38.9199C1467.19 38.9199 1467.61 38.7767 1467.94 38.4902C1468.26 38.2038 1468.43 37.8229 1468.44 37.3477H1471.09C1471.08 38.0638 1470.89 38.7214 1470.5 39.3203C1470.12 39.9128 1469.59 40.375 1468.92 40.707C1468.26 41.0326 1467.52 41.1953 1466.71 41.1953C1465.2 41.1953 1464.01 40.7168 1463.14 39.7598C1462.27 38.7962 1461.83 37.4681 1461.83 35.7754V35.5898C1461.83 33.9622 1462.26 32.6634 1463.13 31.6934C1464 30.7233 1465.18 30.2383 1466.7 30.2383C1468.02 30.2383 1469.07 30.6159 1469.87 31.3711C1470.67 32.1198 1471.08 33.1191 1471.09 34.3691H1468.44C1468.43 33.8223 1468.26 33.3796 1467.94 33.041C1467.61 32.696 1467.18 32.5234 1466.65 32.5234C1465.99 32.5234 1465.49 32.7643 1465.15 33.2461C1464.82 33.7214 1464.65 34.4961 1464.65 35.5703V35.8633C1464.65 36.9505 1464.82 37.7318 1465.15 38.207C1465.48 38.6823 1465.99 38.9199 1466.67 38.9199ZM1476.08 27.8359V30.4336H1477.89V32.5039H1476.08V37.7773C1476.08 38.168 1476.15 38.4479 1476.3 38.6172C1476.45 38.7865 1476.74 38.8711 1477.16 38.8711C1477.48 38.8711 1477.75 38.8483 1477.99 38.8027V40.9414C1477.44 41.1107 1476.87 41.1953 1476.29 41.1953C1474.31 41.1953 1473.3 40.196 1473.26 38.1973V32.5039H1471.71V30.4336H1473.26V27.8359H1476.08Z" fill="white"/>
</g>
<defs>
<clipPath id="clip0_20:901">
<rect width="1920" height="1080" fill="white"/>
</clipPath>
</defs>
</svg>
