<svg width="130" height="130" viewBox="0 0 130 130" fill="none" xmlns="http://www.w3.org/2000/svg">
<path d="M0 65V130H65H130V65V0H65H0V65Z" fill="#007ACC"/>
<path d="M28.7474 65.4312L28.7061 70.755H37.1664H45.6267L45.6267 94.7947V118.834H51.6109H57.595V94.7947L57.595 70.755H66.0553H74.5156V65.5344C74.5156 62.6455 74.4537 60.2312 74.3712 60.1693C74.3093 60.0867 64.0124 60.0455 51.5283 60.0661L28.8093 60.128L28.7474 65.4312Z" fill="white"/>
<path d="M104.898 59.9768C108.199 60.8022 110.717 62.2673 113.028 64.661C114.225 65.9403 115.999 68.2721 116.144 68.8292C116.185 68.9943 110.531 72.7911 107.106 74.9165C106.982 74.9991 106.487 74.4625 105.93 73.6372C104.258 71.2022 102.504 70.1499 99.8216 69.9641C95.8803 69.6959 93.3422 71.7594 93.3629 75.2054C93.3629 76.2165 93.5073 76.8149 93.92 77.6403C94.7867 79.4356 96.3962 80.5086 101.452 82.6959C110.758 86.6991 114.741 89.3403 117.217 93.0959C119.982 97.2848 120.601 103.97 118.723 108.943C116.66 114.35 111.542 118.023 104.341 119.24C102.112 119.632 96.8295 119.57 94.4359 119.137C89.2152 118.209 84.2629 115.629 81.2089 112.245C80.0121 110.924 77.6803 107.478 77.8248 107.231C77.8867 107.148 78.4232 106.818 79.0216 106.467C79.5994 106.137 81.7867 104.878 83.8502 103.682L87.5851 101.515L88.3692 102.67C89.4629 104.342 91.8565 106.632 93.301 107.396C97.4486 109.583 103.144 109.274 105.95 106.756C107.147 105.663 107.642 104.528 107.642 102.856C107.642 101.35 107.457 100.69 106.672 99.5546C105.661 98.1102 103.598 96.8927 97.7375 94.3546C91.0311 91.4657 88.1422 89.6705 85.501 86.8229C83.974 85.1721 82.5295 82.5308 81.9311 80.3229C81.4359 78.4864 81.3121 73.8848 81.7041 72.0276C83.0867 65.5483 87.9772 61.0292 95.0343 59.6879C97.3248 59.2546 102.649 59.4197 104.898 59.9768Z" fill="white"/>
<rect width="130" height="130" fill="#EDEDED" fill-opacity="0.25"/>
</svg>
