<svg width="466" height="466" viewBox="0 0 466 466" fill="none" xmlns="http://www.w3.org/2000/svg">
<g id="undraw_Click_here_re_y6uq 1" clip-path="url(#clip0)">
<path id="Vector" d="M185.48 320.675C183.777 320.677 182.145 321.354 180.941 322.558C179.738 323.762 179.06 325.394 179.059 327.096V458.75C179.06 460.453 179.738 462.085 180.941 463.289C182.145 464.492 183.777 465.17 185.48 465.171H201.276C202.979 465.17 204.611 464.492 205.815 463.289C207.018 462.085 207.696 460.453 207.697 458.75V327.096C207.696 325.394 207.018 323.762 205.815 322.558C204.611 321.354 202.979 320.677 201.276 320.675H185.48Z" fill="#6C63FF"/>
<path id="Vector_2" d="M154.237 320.675C152.535 320.677 150.903 321.354 149.699 322.558C148.495 323.762 147.818 325.394 147.816 327.096V458.75C147.818 460.453 148.495 462.085 149.699 463.289C150.903 464.492 152.535 465.17 154.237 465.171H170.034C171.736 465.17 173.368 464.492 174.572 463.289C175.776 462.085 176.453 460.453 176.455 458.75V327.096C176.453 325.394 175.776 323.762 174.572 322.558C173.368 321.354 171.736 320.677 170.034 320.675H154.237Z" fill="#6C63FF"/>
<path id="Vector_3" d="M177.285 182.745C207.43 182.745 231.867 158.307 231.867 128.163C231.867 98.018 207.43 73.5809 177.285 73.5809C147.14 73.5809 122.703 98.018 122.703 128.163C122.703 158.307 147.14 182.745 177.285 182.745Z" fill="#6C63FF"/>
<path id="Vector_4" d="M216.449 151.075C219.987 150.977 224.39 150.854 227.782 148.376C228.792 147.608 229.622 146.628 230.214 145.506C230.806 144.383 231.145 143.144 231.207 141.877C231.268 140.976 231.121 140.073 230.775 139.239C230.43 138.405 229.896 137.662 229.216 137.068C227.444 135.571 224.857 135.22 222.069 136.039L224.958 114.928L222.837 114.638L219.441 139.456L221.212 138.644C223.265 137.702 226.083 137.223 227.834 138.703C228.264 139.09 228.6 139.571 228.813 140.108C229.027 140.646 229.115 141.225 229.068 141.802C229.016 142.745 228.762 143.666 228.322 144.502C227.882 145.339 227.267 146.07 226.52 146.648C223.88 148.576 220.37 148.825 216.389 148.936L216.449 151.075Z" fill="#2F2E41"/>
<path id="Vector_5" d="M246.973 116.749H235.445V118.889H246.973V116.749Z" fill="#2F2E41"/>
<path id="Vector_6" d="M210.585 116.749H199.057V118.889H210.585V116.749Z" fill="#2F2E41"/>
<path id="Vector_7" d="M225.006 368.013H158.811C154.304 368.013 149.85 367.048 145.747 365.183C141.644 363.317 137.989 360.595 135.026 357.199C132.064 353.803 129.863 349.812 128.571 345.494C127.28 341.176 126.929 336.632 127.54 332.167L143.352 216.741C143.584 215.086 144.406 213.57 145.665 212.471C146.925 211.373 148.538 210.765 150.209 210.759H164.469C164.451 210.563 164.442 210.374 164.442 210.189V204.838C164.444 203.003 165.174 201.243 166.471 199.946C167.769 198.648 169.528 197.918 171.363 197.916H184.206C186.041 197.918 187.801 198.648 189.098 199.946C190.396 201.243 191.126 203.003 191.128 204.838V210.189C191.128 210.374 191.119 210.563 191.101 210.759H205.36C207.031 210.765 208.645 211.373 209.904 212.471C211.164 213.57 211.985 215.086 212.218 216.741L231.863 360.153C231.997 361.132 231.92 362.128 231.636 363.075C231.353 364.022 230.871 364.897 230.221 365.642C229.571 366.386 228.77 366.983 227.87 367.392C226.971 367.801 225.994 368.013 225.006 368.013H225.006Z" fill="#2F2E41"/>
<path id="Vector_8" d="M174.536 184.448L136.783 169.794C130.61 167.398 124.402 165.075 118.261 162.596C115.631 161.68 113.208 160.252 111.132 158.394C109.324 156.481 108.093 154.097 107.577 151.516C106.268 145.982 106.505 139.931 106.598 134.283C106.671 128.104 107.179 121.938 108.12 115.831C109.935 104.421 113.483 93.2193 119.518 83.317C130.106 65.9455 148.347 52.8757 169.33 53.9188C179.044 54.4016 188.814 57.8874 196.031 64.5291C196.784 65.4288 197.629 66.2475 198.552 66.9719C199.193 67.2124 199.891 67.2593 200.559 67.1066C201.44 67.05 202.321 67.0067 203.204 66.9769C206.265 66.8478 209.331 66.9764 212.371 67.3614C217.838 68.1107 223.264 70.0024 227.494 73.6408C231.1 76.7435 234.035 81.1236 234.337 85.9911C234.483 88.2257 234.113 90.4638 233.257 92.5329C232.401 94.602 231.081 96.4468 229.399 97.9249C224.895 101.721 218.468 100.387 213.066 100.1L193.273 99.0518L183.245 98.5205C181.18 98.4111 181.186 101.622 183.245 101.731L209.899 103.143C214.182 103.37 218.597 103.926 222.883 103.67C226.177 103.52 229.322 102.255 231.802 100.082C234.066 98.0015 235.753 95.37 236.698 92.4437C237.642 89.5175 237.813 86.3965 237.192 83.3848C235.818 76.8162 230.929 71.3825 225.198 68.15C217.401 63.7515 208.088 63.3301 199.362 63.9803L200.497 64.4505C190.627 53.8572 175.509 49.3845 161.316 50.9497C146.33 52.6023 133.002 60.9626 123.425 72.3945C112.748 85.1404 106.93 101.034 104.668 117.376C103.491 126.2 103.103 135.111 103.51 144.003C103.668 147.885 103.993 151.884 105.492 155.509C107.008 159.101 109.747 162.038 113.225 163.8C117.106 165.875 121.404 167.252 125.498 168.841L139.407 174.24L166.728 184.845L173.683 187.544C175.61 188.292 176.445 185.189 174.536 184.448V184.448Z" fill="#2F2E41"/>
<path id="Vector_9" d="M115.176 75.3397C111.895 75.3397 108.688 74.3668 105.96 72.544C103.232 70.7212 101.106 68.1304 99.8503 65.0992C98.5947 62.0681 98.2662 58.7326 98.9063 55.5148C99.5464 52.2969 101.126 49.3411 103.446 47.0211C105.766 44.7012 108.722 43.1213 111.94 42.4812C115.158 41.8411 118.493 42.1696 121.524 43.4252C124.555 44.6807 127.146 46.807 128.969 49.5349C130.792 52.2629 131.765 55.4701 131.765 58.7511C131.76 63.1491 130.011 67.3656 126.901 70.4755C123.791 73.5854 119.574 75.3347 115.176 75.3397ZM115.176 45.3732C112.53 45.3732 109.944 46.1578 107.744 47.6277C105.544 49.0977 103.829 51.1871 102.817 53.6316C101.804 56.076 101.539 58.7659 102.055 61.361C102.571 63.956 103.846 66.3398 105.717 68.2107C107.587 70.0816 109.971 71.3557 112.566 71.8719C115.161 72.3881 117.851 72.1232 120.296 71.1107C122.74 70.0981 124.829 68.3834 126.299 66.1834C127.769 63.9834 128.554 61.397 128.554 58.7511C128.55 55.2042 127.139 51.8039 124.631 49.2959C122.123 46.7879 118.723 45.3772 115.176 45.3732V45.3732Z" fill="#2F2E41"/>
<g id="Arms">
<path id="Vector_10" d="M373.018 292.019H299.624C297.574 292.019 295.608 291.205 294.158 289.755C292.709 288.306 291.895 286.339 291.895 284.289C291.895 282.239 292.709 280.273 294.158 278.824C295.608 277.374 297.574 276.56 299.624 276.56H373.018C382.987 276.421 383.086 292.159 373.018 292.019Z" fill="#3F3D56"/>
<path id="Vector_11" d="M305.587 274.241C306.083 272.613 305.913 270.854 305.114 269.351C304.315 267.848 302.952 266.723 301.325 266.223L182.979 230.031C180.271 229.203 177.378 229.196 174.666 230.012C171.954 230.828 169.545 232.43 167.743 234.615C165.942 236.8 164.828 239.471 164.544 242.289C164.261 245.107 164.819 247.945 166.148 250.446V250.446C167.666 253.337 170.14 255.613 173.147 256.887C173.623 257.089 174.109 257.267 174.604 257.418L292.949 293.61C293.756 293.856 294.603 293.942 295.442 293.861C296.282 293.78 297.097 293.535 297.842 293.139C298.586 292.743 299.246 292.205 299.782 291.554C300.318 290.903 300.721 290.153 300.968 289.347L305.587 274.241Z" fill="#6C63FF"/>
<path id="Vector_12" d="M206.836 278.867C205.931 278.624 205.058 278.272 204.237 277.818L171.294 267.162C155.611 260.623 160.83 243.307 165.117 226.764L165.318 225.988L198.937 220.182L224.259 231.501C226.952 232.708 229.083 234.897 230.217 237.622C231.351 240.347 231.402 243.402 230.359 246.163L220.656 271.787C219.64 274.47 217.663 276.68 215.11 277.988C212.556 279.296 209.608 279.609 206.836 278.867V278.867Z" fill="#2F2E41"/>
</g>
<path id="Vector_13" d="M369.485 465.274H1.19067C0.874886 465.274 0.57202 465.149 0.348724 464.926C0.125429 464.702 0 464.4 0 464.084C0 463.768 0.125429 463.465 0.348724 463.242C0.57202 463.018 0.874886 462.893 1.19067 462.893H369.485C369.8 462.893 370.103 463.018 370.327 463.242C370.55 463.465 370.675 463.768 370.675 464.084C370.675 464.4 370.55 464.702 370.327 464.926C370.103 465.149 369.8 465.274 369.485 465.274V465.274Z" fill="#3F3D56"/>
</g>
<defs>
<clipPath id="clip0">
<rect width="465.294" height="465.274" fill="white"/>
</clipPath>
</defs>
</svg>
